<svg width="580" height="580" viewBox="0 0 580 580" fill="none" xmlns="http://www.w3.org/2000/svg">
<path d="M537.673 178.384C537.667 178.378 537.661 178.292 537.655 178.127C537.651 177.938 537.645 177.7 537.637 177.402C537.628 176.738 537.614 175.811 537.595 174.623C537.573 172.185 537.541 168.679 537.5 164.258L537.67 164.423C525.057 164.447 504.996 164.486 482.429 164.53C482.553 164.408 482.145 164.801 482.707 164.258V164.262V164.269V164.283V164.31V164.367V164.481V164.708V165.162V166.068C482.707 166.671 482.707 167.271 482.707 167.869C482.707 169.066 482.707 170.255 482.706 171.434C482.705 173.792 482.703 176.11 482.702 178.382L482.427 178.117C498.157 178.165 511.922 178.207 521.796 178.237C526.713 178.27 530.659 178.295 533.417 178.313C534.758 178.328 535.807 178.339 536.559 178.348C536.898 178.355 537.168 178.36 537.382 178.365C537.568 178.372 537.667 178.377 537.673 178.384C537.679 178.389 537.593 178.395 537.418 178.401C537.213 178.406 536.954 178.411 536.63 178.418C535.892 178.426 534.862 178.439 533.547 178.453C530.806 178.472 526.88 178.497 521.99 178.529C512.069 178.559 498.236 178.602 482.429 178.649L482.154 178.65V178.384C482.153 176.112 482.151 173.793 482.149 171.435C482.149 170.257 482.148 169.068 482.148 167.87C482.148 167.272 482.148 166.671 482.148 166.069V165.163V164.709V164.482V164.368V164.312V164.284V164.27V164.263V164.259C482.712 163.715 482.306 164.109 482.432 163.987C504.999 164.03 525.059 164.069 537.674 164.094H537.847L537.846 164.259C537.805 168.721 537.774 172.26 537.75 174.721C537.733 175.894 537.719 176.808 537.709 177.465C537.702 177.75 537.696 177.979 537.69 178.161C537.684 178.313 537.679 178.388 537.673 178.384Z" fill="#E0E0E0"/>
<path d="M81.9702 455.6C81.9702 455.6 74.8826 406.872 75.4731 378.521C76.0635 350.169 75.4382 318.275 75.4382 318.275H78.7036C78.7036 318.275 76.4915 374.549 78.8997 408.489C81.3044 442.403 87.6426 455.6 87.6426 455.6H81.9702Z" fill="#E0E0E0"/>
<path d="M103.082 263.447C102.426 261.783 101.618 260.049 100.107 259.091C98.0351 257.777 95.3184 258.324 93.0053 259.142C83.1372 262.631 74.3896 281.031 70.4004 290.709L83.5014 334.852C107.149 312.915 111.244 284.134 103.082 263.447Z" fill="#EBEBEB"/>
<path d="M99.3412 260.877C99.3586 260.885 99.2925 261.082 99.151 261.452C98.9828 261.875 98.7705 262.407 98.5095 263.061C97.9353 264.45 97.1291 266.47 96.1663 268.977C94.2361 273.99 91.778 280.998 89.5822 288.893C87.3944 296.794 85.8864 304.067 84.9572 309.357C84.4898 312.002 84.1394 314.149 83.9156 315.635C83.8019 316.328 83.7091 316.895 83.636 317.343C83.5664 317.733 83.52 317.937 83.5014 317.935C83.4829 317.933 83.4921 317.725 83.5269 317.33C83.5733 316.877 83.6337 316.306 83.7056 315.606C83.8657 314.109 84.1592 311.952 84.5791 309.293C85.4143 303.977 86.8666 296.67 89.0602 288.748C91.263 280.831 93.7848 273.823 95.8102 268.837C96.8206 266.343 97.6813 264.342 98.3158 262.977C98.6139 262.34 98.8575 261.82 99.0512 261.407C99.2252 261.052 99.325 260.869 99.3412 260.877Z" fill="#E0E0E0"/>
<path d="M77.6794 345.436C65.3996 338.651 58.1624 325.886 57.4872 311.872C57.0151 302.075 60.0253 292.463 63.4346 283.267C63.7304 282.469 64.0818 281.611 64.8219 281.191C65.852 280.607 67.1408 281.127 68.1697 281.713C77.0936 286.794 82.4992 296.482 85.376 306.338C87.29 312.897 88.2818 319.814 87.3955 326.59C86.5104 333.365 82.6372 340.736 77.6794 345.436Z" fill="#E0E0E0"/>
<path d="M77.6794 345.436C77.6608 345.436 77.6446 345.232 77.6318 344.845C77.6237 344.398 77.6121 343.837 77.5993 343.15C77.5959 341.679 77.5355 339.551 77.4149 336.926C77.1783 331.676 76.4904 324.439 75.1355 316.534C73.7725 308.627 72.1195 301.546 70.9015 296.43C70.3006 293.925 69.8088 291.873 69.448 290.37C69.2949 289.7 69.1696 289.153 69.0699 288.718C68.9898 288.339 68.955 288.137 68.9736 288.132C68.9921 288.128 69.0606 288.32 69.1754 288.69C69.3007 289.119 69.4585 289.658 69.651 290.318C70.0547 291.734 70.6127 293.789 71.2715 296.338C72.5847 301.435 74.3003 308.515 75.6668 316.444C77.0251 324.373 77.6562 331.645 77.7954 336.914C77.8673 339.548 77.8685 341.681 77.8081 343.153C77.7803 343.84 77.7571 344.401 77.7397 344.848C77.7177 345.234 77.6979 345.437 77.6794 345.436Z" fill="#EBEBEB"/>
<path d="M91.5333 419.994C103.619 422.649 113.571 431.174 125.231 435.319C132.945 438.061 141.67 439.032 147.829 444.426C146.351 440.694 142.847 438.21 139.444 436.083C129.855 430.094 119.587 425.192 108.901 421.502C103.415 419.608 97.4632 418.026 91.8731 419.586" fill="#EBEBEB"/>
<path d="M74.059 430.761C58.9234 430.518 42.9861 417.631 27.92 416.862C43.6868 411.772 66.2615 415.93 74.059 430.761Z" fill="#EBEBEB"/>
<path d="M79.9727 394.452C87.6589 391.682 96.0979 391.55 104.17 392.805C112.244 394.06 120.04 396.648 127.794 399.226C127.018 393.974 122.764 390.026 118.769 386.529C115.762 383.9 112.732 381.253 109.284 379.238C105.834 377.224 101.898 375.86 97.9075 376.028C93.0923 376.232 88.5092 378.716 85.3516 382.357C82.1941 385.999 80.4959 389.663 79.9727 394.452Z" fill="#EBEBEB"/>
<path d="M48.9091 377.741C39.3808 369.606 24.9493 370.402 12.4247 370.684C31.6784 379.89 52.4262 392.51 69.0072 405.944C69.5165 397.09 60.9452 388.016 48.9091 377.741Z" fill="#EBEBEB"/>
<path d="M84.2589 366.511C89.0497 363.318 93.8962 360.273 98.912 357.994C103.927 355.716 108.606 352.087 113.45 349.464C119.731 346.063 125.172 341.336 130.936 337.119C136.701 332.903 143.034 329.097 150.088 327.981C144.335 326.794 138.325 327.441 132.659 328.989C126.992 330.536 121.61 332.958 116.254 335.371C108.821 338.72 101.26 342.15 95.1838 347.586C89.1077 353.02 83.6163 358.385 84.2589 366.511Z" fill="#EBEBEB"/>
<path d="M124.954 430.761C124.945 430.777 124.78 430.706 124.475 430.555C124.118 430.37 123.682 430.144 123.154 429.87C122.015 429.264 120.378 428.365 118.317 427.329C117.297 426.791 116.166 426.228 114.94 425.653C113.725 425.049 112.406 424.454 111.01 423.85C108.215 422.656 105.094 421.41 101.69 420.602C98.2973 419.769 94.9147 419.587 91.981 420.357C90.5009 420.716 89.1066 421.068 87.8665 421.586C86.6218 422.09 85.5129 422.68 84.5454 423.291C82.6059 424.511 81.251 425.806 80.3718 426.738C79.4948 427.678 79.0679 428.252 79.0296 428.223C79.0146 428.213 79.1085 428.06 79.3011 427.778C79.4902 427.494 79.7964 427.093 80.2152 426.598C81.055 425.613 82.389 424.256 84.3378 422.971C85.3087 422.328 86.4304 421.706 87.696 421.173C88.9581 420.624 90.3837 420.246 91.865 419.875C94.8636 419.055 98.3784 419.23 101.813 420.076C105.27 420.899 108.408 422.169 111.208 423.394C112.607 424.015 113.926 424.627 115.135 425.249C116.358 425.844 117.481 426.427 118.493 426.989C120.537 428.071 122.147 429.022 123.256 429.686C123.764 429.994 124.184 430.25 124.527 430.458C124.817 430.642 124.964 430.745 124.954 430.761Z" fill="#E0E0E0"/>
<path d="M62.7699 423.261C62.7827 423.226 63.1191 423.326 63.7176 423.538C64.3197 423.742 65.1665 424.104 66.1838 424.61C68.2207 425.615 70.8992 427.329 73.4152 429.738C75.9243 432.157 77.7432 434.766 78.8301 436.76C79.3765 437.756 79.772 438.588 79.9994 439.181C80.2348 439.77 80.3485 440.102 80.3137 440.117C80.2267 440.155 79.6618 438.873 78.4983 436.951C77.3406 435.029 75.5067 432.505 73.0405 430.127C70.5674 427.758 67.9725 426.026 66.0051 424.947C64.0378 423.863 62.7339 423.35 62.7699 423.261Z" fill="#E0E0E0"/>
<path d="M29.2807 376.98C29.2865 376.963 29.5081 377.029 29.9257 377.171C30.3943 377.338 30.9963 377.551 31.7422 377.817C32.5496 378.115 33.5066 378.467 34.6074 378.873C35.7233 379.289 36.9355 379.9 38.3078 380.504C43.7575 382.979 51.0087 387.142 58.0127 393.059C61.4672 396.066 64.5899 399.121 67.2023 402.108C69.8041 405.101 72.007 407.915 73.7238 410.372C75.4522 412.82 76.7618 414.859 77.6608 416.269C78.0865 416.935 78.4299 417.474 78.6967 417.892C78.931 418.265 79.047 418.467 79.0319 418.477C79.0168 418.487 78.8707 418.308 78.6074 417.955C78.3429 417.602 77.9589 417.076 77.4868 416.385C76.5345 415.01 75.1773 413.006 73.4152 410.595C71.6648 408.175 69.4399 405.398 66.8311 402.439C64.2118 399.485 61.0972 396.459 57.6636 393.471C50.7024 387.591 43.5313 383.403 38.1454 380.85C36.7905 380.226 35.5934 379.593 34.4914 379.152C33.4068 378.714 32.4637 378.334 31.668 378.013C30.9383 377.709 30.3479 377.463 29.8897 377.273C29.4849 377.099 29.2749 376.999 29.2807 376.98Z" fill="#E0E0E0"/>
<path d="M102.684 385.945C102.674 385.981 102.244 385.923 101.478 385.789C101.061 385.713 100.6 385.627 100.087 385.533C99.5465 385.428 98.9155 385.426 98.2276 385.354C95.5063 385.157 91.5402 385.381 87.8247 387.406C85.9502 388.355 84.3772 389.635 83.0919 390.919C81.7858 392.192 80.7951 393.519 80.0493 394.681C78.5308 397.005 78.061 398.685 77.9682 398.651C77.9392 398.644 78.0239 398.216 78.2756 397.472C78.554 396.74 78.9821 395.676 79.7245 394.479C80.4425 393.271 81.4204 391.892 82.7381 390.568C84.035 389.236 85.6428 387.906 87.573 386.928C91.4045 384.84 95.5063 384.672 98.2613 384.973C98.9573 385.069 99.5964 385.099 100.138 385.234C100.65 385.362 101.109 385.478 101.524 385.583C102.282 385.782 102.695 385.909 102.684 385.945Z" fill="#E0E0E0"/>
<path d="M117.897 338.752C117.905 338.769 117.707 338.89 117.324 339.105C116.887 339.342 116.328 339.646 115.635 340.023C114.166 340.814 112.054 341.981 109.485 343.493C106.93 345.027 103.92 346.908 100.717 349.198C97.5235 351.493 94.0934 354.159 90.9266 357.401C89.3652 359.03 87.9256 360.733 86.9222 362.585C85.9316 364.489 84.9827 366.329 84.1116 368.096C82.3611 371.627 80.9355 374.876 79.9066 377.669C78.88 380.464 78.2408 382.789 77.8603 384.41C77.4729 386.029 77.3325 386.943 77.2803 386.935C77.2618 386.933 77.2826 386.702 77.3406 386.266C77.3952 385.829 77.4868 385.186 77.655 384.366C77.9728 382.724 78.561 380.367 79.547 377.54C80.5364 374.715 81.9331 371.431 83.665 367.878C84.5268 366.099 85.4676 364.251 86.4524 362.342C87.4941 360.406 88.9557 358.68 90.538 357.026C93.743 353.747 97.2022 351.077 100.428 348.793C103.662 346.515 106.705 344.659 109.292 343.164C111.891 341.689 114.036 340.57 115.536 339.836C116.249 339.496 116.825 339.221 117.272 339.008C117.675 338.824 117.888 338.735 117.897 338.752Z" fill="#E0E0E0"/>
<path d="M75.4545 384.581C75.4174 384.586 75.313 384.132 75.1541 383.305C74.9778 382.371 74.755 381.2 74.4917 379.807C73.9152 376.861 73.0336 372.803 71.63 368.45C70.238 364.09 68.5444 360.297 67.3067 357.561C66.7197 356.271 66.2255 355.185 65.8311 354.32C65.4866 353.552 65.3126 353.119 65.3463 353.103C65.3799 353.087 65.6177 353.487 66.0202 354.227C66.4228 354.967 66.9865 356.046 67.6523 357.397C68.9805 360.096 70.7414 363.89 72.1439 368.284C73.5579 372.671 74.3862 376.768 74.8676 379.74C75.1054 381.228 75.2747 382.435 75.3617 383.273C75.4568 384.111 75.4916 384.576 75.4545 384.581Z" fill="#E0E0E0"/>
<path d="M74.3595 350.145C73.9801 344.427 72.1172 338.87 69.4376 333.804C62.0913 319.914 48.2838 309.618 32.8755 306.538C44.1589 323.355 55.4422 340.172 66.7243 356.989L71.0952 365.994C74.0776 361.101 74.7388 355.864 74.3595 350.145Z" fill="#EBEBEB"/>
<path d="M122.915 449.572H44.2053V463.522H122.915V449.572Z" fill="#EBEBEB"/>
<path d="M50.083 460.755L56.7855 504.042H109.039L117.036 460.755H50.083Z" fill="#EBEBEB"/>
<path d="M122.871 463.539C122.871 463.692 105.117 463.817 83.2207 463.817C61.3176 463.817 43.5673 463.692 43.5673 463.539C43.5673 463.386 61.3176 463.263 83.2207 463.263C105.117 463.263 122.871 463.387 122.871 463.539Z" fill="#E0E0E0"/>
<path d="M278.972 271.999C275.783 264.608 276.521 255.876 279.914 248.575C274.144 253.338 265.95 254.991 258.784 252.838C251.619 250.684 244.043 243.887 241.857 236.732C239.823 253.39 225.987 268.968 210.461 275.338C218.025 284.619 219.603 298.373 214.336 309.126C222.008 307.449 230.135 310.918 235.703 316.457C241.271 321.996 244.652 329.345 247.283 336.746C253.714 327.01 266.004 321.502 277.551 323.182C276.311 315.802 278.764 308.182 282.769 301.86C286.772 295.537 292.24 290.298 297.65 285.128C289.6 285.058 282.162 279.392 278.972 271.999Z" fill="#EBEBEB"/>
<path d="M513.276 63.4832H385.603V274.819H513.276V63.4832Z" fill="#E0E0E0"/>
<path d="M509.03 63.4832H381.357V274.819H509.03V63.4832Z" fill="#EBEBEB"/>
<path d="M503.594 67.7683H386.794V270.533H503.594V67.7683Z" fill="#FAFAFA"/>
<path d="M480.853 94.1165H409.03V244.186H480.853V94.1165Z" fill="#EBEBEB"/>
<path d="M409.03 191.081C408.864 177.062 421.469 163.377 435.35 161.42C441.97 160.487 449.002 161.8 455.189 159.264C466.228 154.737 469.742 140.069 480.852 135.719L481.359 244.186H409.03V191.081Z" fill="#E0E0E0"/>
<path d="M327.967 167.743H272.722V181.868H327.967V167.743Z" fill="#EBEBEB"/>
<path d="M304.607 196.748C304.601 196.742 304.595 196.656 304.589 196.491C304.585 196.302 304.579 196.064 304.571 195.767C304.561 195.103 304.548 194.176 304.529 192.988C304.507 190.55 304.474 187.044 304.434 182.623L304.604 182.788C291.991 182.813 271.93 182.851 249.363 182.895C249.487 182.774 249.079 183.166 249.641 182.623V182.627V182.634V182.648V182.676V182.733V182.846V183.074V183.527V184.433C249.641 185.036 249.641 185.636 249.641 186.235C249.641 187.432 249.64 188.621 249.64 189.799C249.639 192.158 249.637 194.475 249.635 196.748L249.361 196.482C265.091 196.531 278.856 196.572 288.729 196.603C293.646 196.635 297.592 196.661 300.35 196.678C301.69 196.693 302.74 196.705 303.492 196.713C303.831 196.72 304.101 196.726 304.313 196.73C304.502 196.736 304.6 196.742 304.607 196.748C304.613 196.753 304.527 196.759 304.352 196.765C304.147 196.77 303.888 196.775 303.564 196.782C302.826 196.791 301.796 196.802 300.481 196.817C297.74 196.836 293.814 196.861 288.924 196.893C279.003 196.923 265.17 196.966 249.363 197.014L249.088 197.016V196.749C249.087 194.477 249.084 192.159 249.083 189.8C249.083 188.622 249.082 187.433 249.082 186.236C249.082 185.637 249.082 185.036 249.082 184.434V183.528V183.075V182.847V182.734V182.677V182.649V182.635V182.628V182.625C249.646 182.081 249.24 182.474 249.368 182.352C271.934 182.395 291.994 182.434 304.609 182.459H304.782L304.781 182.625C304.74 187.086 304.709 190.625 304.686 193.087C304.668 194.259 304.654 195.174 304.644 195.83C304.637 196.115 304.631 196.344 304.625 196.526C304.618 196.677 304.613 196.753 304.607 196.748Z" fill="#E0E0E0"/>
<path d="M532.374 303.479C532.368 303.473 532.362 303.387 532.356 303.223C532.352 303.034 532.346 302.796 532.338 302.499C532.329 301.834 532.315 300.907 532.296 299.719C532.274 297.281 532.242 293.776 532.201 289.355L532.373 289.52C519.759 289.544 499.698 289.582 477.131 289.626C477.255 289.506 476.847 289.898 477.41 289.355V289.358V289.365V289.379V289.407V289.464V289.578V289.805V290.259V291.164C477.41 291.768 477.41 292.367 477.41 292.966C477.41 294.163 477.408 295.352 477.408 296.531C477.407 298.889 477.405 301.207 477.404 303.478L477.129 303.212C492.86 303.261 506.624 303.303 516.497 303.333C521.414 303.365 525.361 303.391 528.118 303.408C529.459 303.423 530.509 303.435 531.26 303.443C531.599 303.45 531.869 303.456 532.082 303.461C532.269 303.467 532.368 303.473 532.374 303.479C532.38 303.485 532.293 303.491 532.118 303.496C531.913 303.501 531.654 303.507 531.33 303.514C530.592 303.522 529.562 303.535 528.247 303.549C525.506 303.567 521.58 303.593 516.69 303.624C506.768 303.654 492.936 303.697 477.129 303.745L476.854 303.746V303.479C476.853 301.208 476.85 298.889 476.849 296.532C476.849 295.353 476.848 294.164 476.848 292.967C476.848 292.369 476.848 291.768 476.848 291.166V290.26V289.806V289.579V289.465V289.408V289.38V289.366V289.36V289.356C477.411 288.812 477.006 289.205 477.132 289.083C499.699 289.126 519.759 289.166 532.374 289.19H532.547L532.546 289.356C532.505 293.817 532.474 297.357 532.45 299.818C532.433 300.991 532.419 301.905 532.409 302.562C532.402 302.847 532.396 303.075 532.39 303.256C532.385 303.408 532.38 303.484 532.374 303.479Z" fill="#E0E0E0"/>
<path d="M314.865 71.4014C314.859 71.3956 314.853 71.3098 314.847 71.1451C314.843 70.956 314.837 70.7182 314.829 70.4201C314.819 69.7554 314.805 68.8286 314.787 67.6407C314.765 65.2024 314.732 61.6969 314.693 57.2761L314.863 57.4408C302.25 57.4652 282.189 57.5035 259.622 57.5476C259.746 57.4269 259.338 57.819 259.9 57.2761V57.2796V57.2866V57.3005V57.3283V57.3852V57.4988V57.7262V58.1798V59.0857C259.9 59.6889 259.9 60.2886 259.9 60.8872C259.9 62.0843 259.9 63.2733 259.899 64.4519C259.898 66.809 259.896 69.1278 259.895 71.3991L259.62 71.1335C275.35 71.1822 289.115 71.224 298.989 71.2541C303.906 71.2866 307.852 71.3121 310.61 71.3295C311.951 71.3446 313 71.3562 313.752 71.3643C314.091 71.3713 314.361 71.3771 314.575 71.3817C314.76 71.3898 314.859 71.3956 314.865 71.4014C314.87 71.4072 314.785 71.413 314.609 71.4188C314.405 71.4235 314.145 71.4293 313.822 71.4362C313.084 71.4444 312.054 71.456 310.738 71.471C307.997 71.4884 304.072 71.5151 299.181 71.5464C289.26 71.5766 275.428 71.6195 259.621 71.6671L259.346 71.6682V71.4014C259.345 69.1302 259.342 66.8113 259.341 64.4542C259.341 63.2756 259.34 62.0866 259.34 60.8895C259.34 60.291 259.34 59.6901 259.34 59.088V58.1821V57.7285V57.5012V57.3875V57.3306V57.3028V57.2889V57.2819V57.2784C259.904 56.7344 259.498 57.1276 259.624 57.0058C282.191 57.0488 302.251 57.0882 314.866 57.1126H315.039L315.037 57.2784C314.997 61.7398 314.966 65.279 314.942 67.7405C314.925 68.9132 314.911 69.8273 314.901 70.4839C314.894 70.7692 314.888 70.9978 314.882 71.1799C314.876 71.3318 314.87 71.4072 314.865 71.4014Z" fill="#E0E0E0"/>
<path d="M509.859 63.2721C509.854 63.2663 509.849 63.1805 509.843 63.0169C509.838 62.829 509.833 62.5912 509.826 62.2942C509.816 61.6319 509.803 60.7085 509.786 59.5242C509.765 57.094 509.734 53.6012 509.696 49.1967L509.859 49.3614C497.79 49.3858 478.595 49.424 457.003 49.467C457.122 49.3463 456.731 49.7372 457.27 49.1967V49.2002V49.2071V49.221V49.2489V49.3057V49.4182V49.6444V50.0968V50.9993C457.27 51.6002 457.27 52.1988 457.27 52.795C457.27 53.9875 457.268 55.1718 457.268 56.3469C457.267 58.6959 457.265 61.0066 457.264 63.2698L457.001 63.0053C472.053 63.054 485.223 63.0958 494.67 63.126C499.376 63.1584 503.152 63.184 505.789 63.2014C507.072 63.2164 508.076 63.228 508.796 63.2362C509.119 63.2431 509.378 63.2489 509.582 63.2536C509.761 63.2605 509.855 63.2663 509.859 63.2721C509.865 63.2779 509.783 63.2837 509.615 63.2895C509.42 63.2942 509.172 63.2988 508.861 63.3069C508.155 63.315 507.169 63.3266 505.911 63.3417C503.288 63.3591 499.533 63.3846 494.852 63.4171C485.359 63.4473 472.125 63.489 456.999 63.5378L456.736 63.5389V63.2721C456.735 61.009 456.734 58.6982 456.731 56.3492C456.731 55.1742 456.73 53.9898 456.73 52.7973C456.73 52.2011 456.73 51.6025 456.73 51.0016V50.0992V49.6468V49.4206V49.308V49.2512V49.2234V49.2094V49.2025V49.199C457.268 48.6561 456.881 49.0482 457.003 48.9276C478.595 48.9705 497.791 49.0088 509.859 49.0331H510.025L510.024 49.1978C509.986 53.6441 509.954 57.1705 509.934 59.6228C509.916 60.7909 509.903 61.7026 509.894 62.3557C509.887 62.6399 509.881 62.8673 509.877 63.0482C509.871 63.2025 509.865 63.2779 509.859 63.2721Z" fill="#E0E0E0"/>
<path d="M517.027 49.1967C517.02 49.1897 517.013 49.0993 517.006 48.9287C517 48.7269 516.993 48.4821 516.985 48.1829C516.974 47.4903 516.957 46.5484 516.937 45.3606C516.911 42.8921 516.876 39.4075 516.832 35.1213L517.026 35.3161C508.798 35.3359 497.605 35.3625 485.269 35.3927C485.026 35.6351 485.593 35.0621 485.535 35.1224V35.1259V35.1329V35.1468V35.1758V35.2338V35.3498V35.5806V36.0423V36.9622C485.535 37.5747 485.535 38.1825 485.535 38.788C485.534 39.9979 485.533 41.1927 485.533 42.3701C485.53 44.7249 485.527 47.0078 485.524 49.1944L485.267 48.9369C494.436 48.9867 502.33 49.0285 507.987 49.0598C510.777 49.09 513.013 49.1143 514.605 49.1317C515.348 49.1445 515.94 49.1561 516.39 49.1642C516.798 49.1758 517.017 49.1863 517.027 49.1967C517.037 49.2071 516.84 49.2176 516.45 49.228C516.014 49.2361 515.44 49.2466 514.719 49.2605C513.141 49.2779 510.924 49.3023 508.159 49.3313C502.459 49.3614 494.504 49.4043 485.266 49.4542L485.01 49.4554V49.1955C485.006 47.0089 485.003 44.7249 485.001 42.3713C484.999 41.1939 484.999 39.9991 484.998 38.7892C484.998 38.1837 484.998 37.5758 484.998 36.9633V36.0435V35.5818V35.3509V35.2349V35.1769V35.1479V35.134V35.1271V35.1236C484.939 35.1804 485.51 34.6085 485.27 34.851C497.606 34.8811 508.8 34.9078 517.027 34.9275H517.223L517.221 35.1224C517.177 39.4573 517.142 42.9837 517.116 45.4801C517.095 46.6493 517.079 47.5762 517.068 48.2583C517.054 48.8881 517.041 49.2106 517.027 49.1967Z" fill="#E0E0E0"/>
<path d="M297.723 422.226C297.717 422.22 297.713 422.135 297.707 421.971C297.702 421.782 297.697 421.545 297.69 421.249C297.68 420.587 297.666 419.664 297.65 418.479C297.629 416.049 297.598 412.556 297.56 408.152L297.723 408.317C285.653 408.341 266.459 408.379 244.867 408.422C244.986 408.302 244.595 408.692 245.134 408.152V408.155V408.162V408.176V408.204V408.261V408.375V408.601V409.053V409.956C245.134 410.557 245.134 411.155 245.134 411.751C245.134 412.945 245.132 414.128 245.132 415.303C245.131 417.652 245.13 419.963 245.128 422.226L244.864 421.962C259.917 422.01 273.087 422.052 282.534 422.082C287.239 422.115 291.015 422.14 293.653 422.158C294.936 422.173 295.94 422.184 296.66 422.193C296.983 422.199 297.242 422.205 297.446 422.209C297.624 422.215 297.717 422.22 297.723 422.226C297.729 422.232 297.647 422.238 297.479 422.244C297.284 422.248 297.035 422.253 296.725 422.261C296.019 422.269 295.033 422.281 293.775 422.296C291.152 422.313 287.397 422.34 282.716 422.371C273.223 422.401 259.988 422.443 244.863 422.492L244.6 422.493V422.226C244.599 419.963 244.598 417.652 244.595 415.303C244.595 414.128 244.594 412.945 244.594 411.751C244.594 411.155 244.594 410.557 244.594 409.956V409.053V408.601V408.375V408.261V408.204V408.176V408.162V408.155V408.152C245.132 407.609 244.745 408.001 244.867 407.88C266.459 407.923 285.655 407.962 297.723 407.986H297.889L297.888 408.151C297.85 412.597 297.818 416.123 297.798 418.576C297.78 419.744 297.767 420.655 297.758 421.309C297.751 421.593 297.745 421.82 297.741 422.002C297.734 422.157 297.729 422.232 297.723 422.226Z" fill="#E0E0E0"/>
<path d="M304.89 408.152C304.883 408.145 304.876 408.054 304.869 407.884C304.863 407.682 304.856 407.437 304.848 407.138C304.836 406.445 304.82 405.503 304.799 404.316C304.774 401.847 304.739 398.363 304.695 394.076L304.889 394.271C296.661 394.291 285.468 394.318 273.131 394.348C272.889 394.59 273.456 394.017 273.398 394.077V394.081V394.088V394.102V394.131V394.189V394.305V394.536V394.997V395.917C273.398 396.529 273.398 397.138 273.398 397.743C273.397 398.953 273.396 400.148 273.396 401.325C273.392 403.68 273.389 405.963 273.386 408.149L273.13 407.892C282.299 407.942 290.193 407.984 295.85 408.015C298.64 408.045 300.876 408.069 302.468 408.086C303.211 408.1 303.803 408.11 304.253 408.118C304.661 408.13 304.879 408.14 304.89 408.152C304.9 408.162 304.703 408.173 304.313 408.183C303.877 408.191 303.303 408.202 302.581 408.216C301.004 408.233 298.787 408.257 296.022 408.286C290.321 408.316 282.367 408.359 273.129 408.409L272.873 408.41V408.151C272.869 405.963 272.866 403.68 272.863 401.326C272.862 400.149 272.862 398.954 272.861 397.744C272.861 397.139 272.861 396.531 272.86 395.918V394.999V394.537V394.306V394.19V394.132V394.103V394.089V394.082V394.079C272.801 394.135 273.371 393.564 273.131 393.806C285.468 393.836 296.662 393.863 304.889 393.883H305.085L305.082 394.077C305.038 398.412 305.003 401.939 304.978 404.435C304.957 405.604 304.942 406.531 304.929 407.213C304.916 407.842 304.904 408.165 304.89 408.152Z" fill="#E0E0E0"/>
<path d="M93.2883 148.48C93.2825 148.474 93.2779 148.388 93.2721 148.225C93.2675 148.037 93.2617 147.799 93.2547 147.503C93.2454 146.841 93.2315 145.918 93.2153 144.733C93.1944 142.303 93.1631 138.81 93.1248 134.406L93.2883 134.571C81.2197 134.595 62.024 134.633 40.4318 134.676C40.5513 134.555 40.1603 134.946 40.6986 134.406V134.409V134.416V134.43V134.458V134.515V134.629V134.855V135.307V136.21C40.6986 136.81 40.6986 137.409 40.6986 138.005C40.6986 139.199 40.6974 140.382 40.6974 141.557C40.6963 143.906 40.6951 146.217 40.6928 148.48L40.4295 148.216C55.4816 148.264 68.6523 148.306 78.0993 148.336C82.8054 148.369 86.5812 148.394 89.2179 148.412C90.5009 148.427 91.5054 148.438 92.2246 148.446C92.5483 148.453 92.8069 148.459 93.0111 148.464C93.1897 148.468 93.2837 148.474 93.2883 148.48C93.2941 148.486 93.2118 148.492 93.0436 148.497C92.8487 148.502 92.6005 148.507 92.2896 148.515C91.5843 148.523 90.5983 148.535 89.3397 148.55C86.7169 148.567 82.962 148.593 78.2814 148.625C68.788 148.655 55.5535 148.697 40.4283 148.746L40.165 148.747V148.48C40.1638 146.217 40.1627 143.906 40.1603 141.557C40.1603 140.382 40.1592 139.198 40.1592 138.005C40.1592 137.409 40.1592 136.81 40.1592 136.21V135.307V134.855V134.629V134.515V134.458V134.43V134.416V134.409V134.406C40.6974 133.863 40.31 134.255 40.4318 134.134C62.024 134.177 81.2197 134.217 93.2883 134.24H93.4542L93.4531 134.405C93.4148 138.851 93.3835 142.377 93.3626 144.83C93.3452 145.998 93.3324 146.909 93.322 147.563C93.315 147.847 93.3092 148.074 93.3046 148.255C93.2999 148.409 93.2941 148.485 93.2883 148.48Z" fill="#E0E0E0"/>
<path d="M100.456 134.405C100.449 134.398 100.442 134.307 100.435 134.137C100.429 133.935 100.422 133.69 100.414 133.391C100.403 132.698 100.386 131.756 100.366 130.568C100.34 128.1 100.305 124.615 100.261 120.329L100.455 120.524C92.227 120.544 81.0341 120.57 68.6975 120.601C68.4551 120.843 69.0223 120.27 68.9643 120.33V120.334V120.341V120.355V120.384V120.442V120.558V120.788V121.25V122.17C68.9643 122.782 68.9643 123.39 68.9643 123.996C68.9632 125.206 68.962 126.401 68.962 127.578C68.9585 129.933 68.955 132.216 68.9527 134.402L68.6964 134.145C77.865 134.195 85.7588 134.236 91.4161 134.268C94.2059 134.298 96.4424 134.322 98.0339 134.34C98.7775 134.353 99.3691 134.364 99.8192 134.372C100.227 134.384 100.446 134.394 100.456 134.405C100.466 134.415 100.269 134.425 99.8795 134.436C99.4433 134.444 98.8691 134.454 98.1476 134.468C96.57 134.486 94.3532 134.51 91.5878 134.539C85.8876 134.569 77.9334 134.612 68.6952 134.662L68.44 134.664V134.405C68.4365 132.218 68.433 129.934 68.4307 127.58C68.4296 126.403 68.4296 125.208 68.4284 123.998C68.4284 123.393 68.4284 122.785 68.4284 122.172V121.252V120.791V120.56V120.444V120.386V120.357V120.343V120.336V120.333C68.3692 120.389 68.94 119.818 68.6998 120.06C81.0364 120.09 92.2304 120.117 100.457 120.137H100.653L100.651 120.331C100.607 124.666 100.572 128.193 100.546 130.689C100.527 131.858 100.511 132.785 100.499 133.467C100.483 134.095 100.47 134.418 100.456 134.405Z" fill="#E0E0E0"/>
<path d="M372.384 499.562C371.935 499.562 371.478 499.501 371.021 499.372C369.025 498.81 367.734 497.179 367.734 495.214V444.578H368.933V495.214C368.933 496.98 370.243 497.973 371.364 498.287C372.485 498.603 374.157 498.444 375.18 496.966L411.632 444.268L412.636 444.887L376.184 497.584C375.305 498.854 373.898 499.562 372.384 499.562Z" fill="#E0E0E0"/>
<path d="M517.147 499.562C515.633 499.562 514.226 498.855 513.348 497.585L476.895 444.888L477.899 444.27L514.352 496.967C515.374 498.445 517.046 498.606 518.167 498.288C519.289 497.975 520.598 496.981 520.598 495.216V444.579H521.797V495.216C521.797 497.181 520.506 498.813 518.51 499.373C518.052 499.501 517.595 499.562 517.147 499.562Z" fill="#E0E0E0"/>
<path d="M538.633 312.707H351.442V449.836H538.633V312.707Z" fill="#EBEBEB"/>
<path d="M527.752 374.59C527.752 374.59 527.737 374.286 527.73 373.708C527.725 373.118 527.718 372.266 527.707 371.151C527.696 368.894 527.677 365.583 527.654 361.296C527.626 352.719 527.585 340.25 527.535 324.613L527.752 324.807C487.807 324.831 428.258 324.867 361.9 324.907H361.89L362.218 324.612C362.215 341.982 362.211 358.831 362.208 374.587L361.89 374.303C409.627 374.356 451.05 374.403 480.555 374.435C495.319 374.469 507.097 374.497 515.205 374.515C519.248 374.532 522.373 374.543 524.507 374.552C525.558 374.561 526.36 374.566 526.919 374.571C527.465 374.577 527.752 374.59 527.752 374.59C527.752 374.59 527.491 374.601 526.96 374.608C526.409 374.612 525.619 374.619 524.586 374.626C522.467 374.634 519.366 374.646 515.351 374.663C507.26 374.681 495.507 374.708 480.775 374.743C451.216 374.775 409.717 374.822 361.891 374.875H361.573V374.59C361.57 358.833 361.566 341.984 361.563 324.614V324.32H361.891H361.901C428.259 324.36 487.808 324.396 527.754 324.42H527.97L527.969 324.613C527.918 340.3 527.879 352.808 527.851 361.413C527.828 365.681 527.81 368.978 527.798 371.224C527.788 372.324 527.78 373.164 527.774 373.746C527.766 374.311 527.752 374.59 527.752 374.59Z" fill="#E0E0E0"/>
<path d="M527.752 433.857C527.752 433.857 527.737 433.554 527.73 432.977C527.725 432.387 527.718 431.535 527.707 430.42C527.696 428.163 527.677 424.852 527.654 420.565C527.626 411.988 527.585 399.519 527.535 383.881L527.752 384.076C487.807 384.1 428.258 384.136 361.9 384.176H361.89L362.218 383.881C362.215 401.252 362.211 418.1 362.208 433.856L361.89 433.572C409.627 433.625 451.05 433.671 480.555 433.704C495.319 433.739 507.097 433.766 515.205 433.784C519.248 433.801 522.373 433.812 524.507 433.82C525.558 433.828 526.36 433.834 526.919 433.839C527.465 433.846 527.752 433.857 527.752 433.857C527.752 433.857 527.491 433.869 526.96 433.876C526.409 433.881 525.619 433.886 524.586 433.893C522.467 433.902 519.366 433.914 515.351 433.931C507.26 433.949 495.507 433.976 480.775 434.011C451.216 434.043 409.717 434.089 361.891 434.143L361.573 434.144V433.859C361.57 418.102 361.566 401.253 361.563 383.884V383.589H361.891H361.901C428.259 383.629 487.808 383.665 527.754 383.69H527.97L527.969 383.884C527.918 399.57 527.879 412.078 527.851 420.683C527.828 424.951 527.81 428.248 527.798 430.495C527.788 431.594 527.78 432.434 527.774 433.016C527.766 433.579 527.752 433.857 527.752 433.857Z" fill="#E0E0E0"/>
<path d="M410.833 324.319L416.218 329.475H477.984L484.126 324.319H410.833Z" fill="#E0E0E0"/>
<path d="M411.061 383.588L416.448 388.743H478.212L484.354 383.588H411.061Z" fill="#E0E0E0"/>
<path d="M555.231 503.86C555.231 504.027 436.473 504.162 290.013 504.162C143.501 504.162 24.7683 504.026 24.7683 503.86C24.7683 503.693 143.5 503.558 290.013 503.558C436.473 503.558 555.231 503.694 555.231 503.86Z" fill="#263238"/>
<path d="M285.894 100.763H101.073V116.366H285.894V100.763Z" fill="#AE7461"/>
<path d="M278.234 92.6493C278.776 89.6901 280.884 87.0662 283.656 85.8992C286.428 84.7323 289.778 85.0594 292.272 86.7402C289.161 90.9116 283.741 93.2362 278.574 92.6133" fill="#455A64"/>
<path d="M280.26 94.4148C281.53 96.6953 280.708 99.6962 278.961 101.636C277.213 103.575 274.732 104.668 272.287 105.587C272.138 103.024 272.853 100.419 274.288 98.2915C275.724 96.164 277.872 94.5261 280.305 93.7048" fill="#455A64"/>
<path d="M274.036 83.6476C273.122 86.3191 271.08 88.5834 268.519 89.7713C265.957 90.9591 262.911 91.0519 260.281 90.0242C261.59 87.4281 263.348 84.9155 265.913 83.5467C268.477 82.1779 271.992 82.2719 273.977 84.3958" fill="#455A64"/>
<path d="M274.751 80.853C275.769 78.4484 278.667 77.2118 281.254 77.5714C283.839 77.9298 286.089 79.5991 287.758 81.6059C285.83 82.9886 283.367 83.6046 281.016 83.2914C278.665 82.9782 276.449 81.7393 274.949 79.9018" fill="#455A64"/>
<path d="M282.788 105.227C284.71 107.845 284.453 111.642 282.75 114.407C281.047 117.172 278.144 119.014 275.102 120.15C274.79 116.94 274.906 113.603 276.166 110.634C277.426 107.664 279.992 105.113 283.164 104.528" fill="#455A64"/>
<path d="M276.792 73.9162C275.964 71.7517 274.089 70.0152 271.868 69.3551C269.647 68.6939 267.128 69.1231 265.25 70.4826C265.712 72.9001 267.648 74.973 270.028 75.5971C272.409 76.2212 275.114 75.3651 276.702 73.4859" fill="#455A64"/>
<path d="M275.542 66.0004C277.945 67.3947 280.951 67.7067 283.59 66.8344C286.229 65.9621 288.456 63.9193 289.555 61.3673C287.668 60.7444 285.734 60.1992 283.75 60.0925C281.765 59.9858 279.711 60.3442 278.035 61.4126C276.358 62.4798 275.594 64.0133 275.542 66.0004Z" fill="#455A64"/>
<path d="M270.427 62.8255C272.556 61.785 274.178 59.7608 274.73 57.4559C275.281 55.1521 274.751 52.6117 273.324 50.7209C271.099 52.418 269.31 54.68 268.17 57.2343C267.743 58.1925 267.401 59.2249 267.484 60.2701C267.568 61.3152 268.161 62.3743 269.139 62.7513" fill="#455A64"/>
<path d="M256.687 78.1735C256.694 78.1747 256.709 78.1074 256.734 77.9752C256.76 77.8209 256.793 77.6295 256.834 77.3906C256.92 76.8767 257.049 76.1192 257.258 75.1529C257.7 73.2505 258.377 70.3784 260.428 67.5027C261.463 66.0956 262.857 64.699 264.684 63.7524C266.486 62.7827 268.778 62.3918 271.01 62.9776C272.117 63.2606 273.204 63.7838 274.101 64.5726C275.014 65.344 275.676 66.4146 276.07 67.592C276.847 69.984 276.544 72.6868 275.825 75.2527C275.12 77.843 274.14 80.3323 273.841 82.9098C273.695 84.1905 273.709 85.4781 273.961 86.703C274.203 87.9268 274.695 89.0926 275.451 90.0322C276.199 90.9857 277.175 91.6504 278.09 92.271C279.015 92.8881 279.899 93.4867 280.618 94.2187C282.074 95.6698 282.965 97.4446 283.38 99.1371C283.803 100.838 283.724 102.463 283.412 103.815C283.103 105.176 282.566 106.272 282.048 107.104C280.987 108.771 280.05 109.412 280.097 109.454C280.102 109.46 280.157 109.418 280.261 109.335C280.363 109.249 280.523 109.128 280.708 108.943C281.09 108.586 281.627 108.02 282.175 107.185C282.72 106.355 283.287 105.249 283.623 103.865C283.963 102.489 284.064 100.823 283.647 99.0721C283.237 97.3298 282.338 95.4993 280.845 93.9902C279.385 92.4311 277.167 91.6075 275.732 89.8083C274.291 88.0057 273.924 85.4259 274.219 82.9528C274.514 80.4448 275.485 77.9717 276.199 75.3547C276.927 72.7563 277.249 69.9747 276.431 67.4714C276.019 66.2395 275.312 65.1027 274.345 64.2907C273.396 63.4613 272.254 62.9196 271.098 62.6296C268.773 62.0275 266.382 62.4532 264.533 63.4659C262.655 64.4554 261.242 65.8973 260.203 67.3415C259.164 68.8008 258.504 70.2925 258.034 71.623C257.572 72.9605 257.298 74.1484 257.107 75.1228C256.92 76.0983 256.816 76.8616 256.754 77.3801C256.729 77.6214 256.709 77.8151 256.692 77.9706C256.684 78.104 256.681 78.1724 256.687 78.1735Z" fill="#263238"/>
<path d="M209.429 93.5643C209.487 93.5318 208.684 92.873 208.113 91.2177C207.843 90.3987 207.657 89.3211 207.852 88.1077C208.039 86.9025 208.658 85.5731 209.783 84.5152C210.339 83.9874 211.017 83.528 211.793 83.2171C212.567 82.9016 213.439 82.752 214.347 82.7183C216.166 82.6221 218.132 83.0443 220.243 82.803C221.285 82.6789 222.377 82.3947 223.306 81.7381C224.247 81.0955 224.89 80.0434 225.178 78.9251C225.78 76.6875 225.372 74.2515 226.27 72.0777C226.707 71.0012 227.491 70.1068 228.409 69.4433C229.323 68.767 230.392 68.3448 231.468 68.1105C233.641 67.607 235.847 68.1429 237.602 69.1626C239.371 70.1903 240.736 71.6496 241.757 73.1553C242.787 74.6679 243.463 76.2479 243.871 77.7524C244.7 80.7649 244.965 83.303 245.223 85.0349C245.341 85.8782 245.434 86.5463 245.502 87.0358C245.536 87.2446 245.565 87.4152 245.587 87.5544C245.608 87.6704 245.623 87.7295 245.629 87.7295C245.636 87.7284 245.635 87.668 245.626 87.5497C245.614 87.4094 245.599 87.2365 245.58 87.0266C245.529 86.5347 245.461 85.8643 245.374 85.0163C245.16 83.2775 244.939 80.7324 244.137 77.6781C243.742 76.1516 243.063 74.5229 242.026 72.9743C240.995 71.4304 239.607 69.9224 237.783 68.8505C236.87 68.3239 235.855 67.9109 234.764 67.6963C233.673 67.4794 232.517 67.4933 231.39 67.7358C230.266 67.9771 229.148 68.4167 228.182 69.1278C227.215 69.8249 226.379 70.775 225.911 71.9245C224.969 74.2469 225.393 76.6956 224.811 78.823C224.539 79.8844 223.954 80.8368 223.094 81.433C222.241 82.0409 221.209 82.3216 220.203 82.4446C218.174 82.6905 216.203 82.2845 214.334 82.3935C213.402 82.4353 212.492 82.5977 211.68 82.9376C210.869 83.2717 210.166 83.7588 209.592 84.3156C208.436 85.4304 207.811 86.8224 207.638 88.0752C207.457 89.335 207.672 90.4381 207.971 91.2675C208.269 92.1051 208.664 92.6816 208.948 93.047C209.234 93.4135 209.429 93.5643 209.429 93.5643Z" fill="#263238"/>
<path d="M225.482 74.7202C224.01 76.4579 221.461 77.3882 219.502 77.0785C217.543 76.7688 215.765 75.2805 214.818 73.16C216.417 71.6532 218.445 70.8864 220.4 71.0523C222.355 71.2182 224.218 72.3132 225.526 74.066" fill="#455A64"/>
<path d="M220.874 82.6907C221.593 84.8517 221.061 87.5116 219.776 89.0243C218.491 90.5357 216.296 91.2805 213.992 90.9847C213.537 88.8352 213.939 86.7043 215.098 85.1209C216.257 83.5375 218.161 82.5167 220.34 82.3125" fill="#455A64"/>
<path d="M209.19 84.9909C207.541 86.5616 204.908 87.2146 202.993 86.6973C201.078 86.1799 199.469 84.5118 198.754 82.302C200.505 80.9738 202.603 80.4286 204.529 80.801C206.454 81.1745 208.19 82.4621 209.305 84.3448" fill="#455A64"/>
<path d="M233.694 67.7904C234.881 65.8474 235.185 63.01 234.276 61.248C233.365 59.4848 231.394 58.2645 229.084 58.0325C228.155 60.0242 228.065 62.1899 228.837 63.9937C229.608 65.7975 231.233 67.222 233.309 67.9134" fill="#455A64"/>
<path d="M276.099 44.8317C276.103 44.827 276.071 44.7795 276.002 44.6901C275.916 44.5834 275.813 44.4558 275.688 44.2992C275.404 43.9617 274.969 43.4756 274.369 42.8898C273.164 41.7426 271.264 40.1174 268.426 39.0398C267.015 38.5178 265.367 38.1431 263.578 38.2092C261.799 38.2811 259.895 38.766 258.167 39.8054C256.447 40.8227 254.89 42.4455 254.161 44.5417C253.425 46.6343 253.486 48.923 253.243 51.1641C253.117 52.287 252.899 53.3843 252.474 54.3843C252.046 55.3819 251.37 56.231 250.64 57.0059C249.91 57.7842 249.132 58.5081 248.452 59.3096C247.773 60.1123 247.22 60.9974 246.81 61.9127C245.983 63.7489 245.679 65.6676 245.653 67.4389C245.624 69.2172 245.892 70.8632 246.262 72.319C247.015 75.2364 248.066 77.4416 248.764 78.9589C249.12 79.7163 249.41 80.2987 249.609 80.6919C249.808 81.0851 249.919 81.2881 249.931 81.2823C249.943 81.2765 249.857 81.0619 249.681 80.6583C249.489 80.2244 249.231 79.6363 248.904 78.8962C248.249 77.3627 247.241 75.1471 246.531 72.2529C246.182 70.8087 245.936 69.1882 245.978 67.4447C246.016 65.7093 246.327 63.8371 247.138 62.0623C247.542 61.1761 248.076 60.3281 248.736 59.5521C249.4 58.7749 250.175 58.058 250.92 57.2692C251.662 56.4839 252.378 55.5941 252.831 54.5397C253.28 53.4887 253.504 52.3508 253.632 51.2082C253.875 48.9288 253.82 46.6726 254.523 44.6693C255.213 42.6706 256.695 41.1092 258.354 40.1151C260.019 39.1013 261.867 38.6176 263.593 38.534C265.326 38.4552 266.943 38.8043 268.332 39.3008C271.129 40.3239 273.038 41.8957 274.266 43.0023C274.878 43.5673 275.329 44.0347 275.631 44.3549C275.926 44.6739 276.088 44.8398 276.099 44.8317Z" fill="#263238"/>
<path d="M249.749 57.7471C250.234 57.0952 250.589 57.4211 251.402 57.4188C252.215 57.4165 253.004 57.7042 253.721 58.087C256.841 59.7539 258.764 63.4276 258.352 66.9413C255.875 67.5398 253.102 66.6768 251.4 64.7802C249.699 62.8836 249.143 60.0323 250.006 57.6346" fill="#455A64"/>
<path d="M271.767 42.3747C271.924 41.5766 272.384 41.7193 273.117 41.3678C273.851 41.0163 274.687 40.9363 275.499 40.9734C279.033 41.1358 282.348 43.6251 283.489 46.9741C281.51 48.5795 278.636 48.9936 276.284 48.0134C273.933 47.0332 272.203 44.6981 271.952 42.1635" fill="#455A64"/>
<path d="M247.186 73.5301C248.438 71.3957 250.706 69.8888 253.158 69.5582C255.611 69.2276 258.196 70.0837 259.969 71.811C258.493 73.7656 256.28 75.1471 253.875 75.6134C251.472 76.0798 248.863 75.4162 246.763 74.1565" fill="#455A64"/>
<path d="M247.121 62.1087C244.692 62.6295 242.04 61.9881 240.118 60.4151C238.196 58.841 237.044 56.369 237.075 53.8843C239.524 52.8275 242.537 53.2185 244.635 54.8668C246.732 56.5152 247.825 59.3491 247.377 61.9788" fill="#455A64"/>
<path d="M253.183 47.5494C251.066 48.8475 248.351 49.1247 246.015 48.2791C243.679 47.4334 241.771 45.4835 240.975 43.131C242.933 41.3202 245.905 40.688 248.431 41.5453C250.957 42.4025 252.93 44.7132 253.381 47.3418" fill="#455A64"/>
<path d="M255.236 42.7829C257.354 41.4849 260.069 41.2077 262.404 42.0533C264.74 42.8989 266.648 44.8489 267.444 47.2014C265.486 49.0121 262.514 49.6443 259.988 48.7871C257.463 47.9299 255.489 45.6191 255.039 42.9906" fill="#455A64"/>
<path d="M258.195 39.8737C255.736 39.5187 253.473 37.9945 252.218 35.8508C250.963 33.7071 250.741 30.9881 251.634 28.6692C254.298 28.5289 256.986 29.9441 258.381 32.2177C259.774 34.4924 259.815 37.5305 258.481 39.84" fill="#455A64"/>
<path d="M266.935 38.6894C265.678 36.5469 265.456 33.8278 266.348 31.509C267.239 29.1901 269.226 27.3202 271.594 26.572C273.366 28.5661 273.939 31.5496 273.032 34.0575C272.124 36.5654 269.775 38.4933 267.138 38.8912" fill="#455A64"/>
<path d="M268.576 74.9846H230.668V81.7033H268.576V74.9846Z" fill="#FF725E"/>
<path d="M233.5 80.3706L238.582 101.218H261.893L265.746 80.3706H233.5Z" fill="#FF725E"/>
<path d="M268.555 81.7115C268.555 81.7858 260.005 81.8449 249.459 81.8449C238.91 81.8449 230.362 81.7858 230.362 81.7115C230.362 81.6385 238.911 81.5781 249.459 81.5781C260.005 81.5781 268.555 81.6385 268.555 81.7115Z" fill="#263238"/>
<path d="M114.403 100.066L114.233 85.0613H122.401L122.683 100.066H114.403Z" fill="#F5F5F5"/>
<path d="M121.919 87.7303C121.919 87.8011 120.22 87.8591 118.124 87.8591C116.028 87.8591 114.328 87.8011 114.328 87.7303C114.328 87.6596 116.028 87.6016 118.124 87.6016C120.219 87.6016 121.919 87.6584 121.919 87.7303Z" fill="#E0E0E0"/>
<path d="M121.919 90.0458C121.919 90.1165 120.22 90.1745 118.124 90.1745C116.028 90.1745 114.328 90.1177 114.328 90.0458C114.328 89.975 116.028 89.917 118.124 89.917C120.219 89.9182 121.919 89.975 121.919 90.0458Z" fill="#E0E0E0"/>
<path d="M121.919 92.3624C121.919 92.4332 120.22 92.4912 118.124 92.4912C116.028 92.4912 114.328 92.4343 114.328 92.3624C114.328 92.2916 116.028 92.2336 118.124 92.2336C120.219 92.2336 121.919 92.2916 121.919 92.3624Z" fill="#E0E0E0"/>
<path d="M121.919 94.6776C121.919 94.7483 120.22 94.8063 118.124 94.8063C116.028 94.8063 114.328 94.7495 114.328 94.6776C114.328 94.6068 116.028 94.5488 118.124 94.5488C120.219 94.5488 121.919 94.6068 121.919 94.6776Z" fill="#E0E0E0"/>
<path d="M121.919 96.9942C121.919 97.065 120.22 97.123 118.124 97.123C116.028 97.123 114.328 97.065 114.328 96.9942C114.328 96.9235 116.028 96.8655 118.124 96.8655C120.219 96.8655 121.919 96.9223 121.919 96.9942Z" fill="#E0E0E0"/>
<path d="M113.526 84.5637H204.051C205.168 89.5332 205.011 95.0002 204.051 100.782H113.912V99.6785H119.42C120.856 99.6785 122.02 98.5139 122.02 97.0778V88.1029C122.02 86.6668 120.856 85.5022 119.42 85.5022H113.526V84.5637Z" fill="#FF725E"/>
<path d="M200.925 101.093C200.854 101.093 200.796 97.3678 200.796 92.7731C200.796 88.1771 200.853 84.4524 200.925 84.4524C200.995 84.4524 201.053 88.1771 201.053 92.7731C201.053 97.3678 200.997 101.093 200.925 101.093Z" fill="#263238"/>
<path d="M126.848 101.093C126.778 101.093 126.72 97.3678 126.72 92.7731C126.72 88.1771 126.778 84.4524 126.848 84.4524C126.919 84.4524 126.977 88.1771 126.977 92.7731C126.976 97.3678 126.919 101.093 126.848 101.093Z" fill="#263238"/>
<path d="M202.514 101.093C202.443 101.093 202.385 97.3678 202.385 92.7731C202.385 88.1771 202.442 84.4524 202.514 84.4524C202.585 84.4524 202.643 88.1771 202.643 92.7731C202.642 97.3678 202.585 101.093 202.514 101.093Z" fill="#263238"/>
<path d="M125.364 101.093C125.293 101.093 125.235 97.3678 125.235 92.7731C125.235 88.1771 125.292 84.4524 125.364 84.4524C125.434 84.4524 125.492 88.1771 125.492 92.7731C125.492 97.3678 125.434 101.093 125.364 101.093Z" fill="#263238"/>
<path d="M189.544 94.5491H142.557C141.349 94.5491 140.369 93.5701 140.369 92.3613C140.369 91.1538 141.348 90.1736 142.557 90.1736H189.544C190.753 90.1736 191.732 91.1526 191.732 92.3613C191.732 93.5701 190.753 94.5491 189.544 94.5491Z" fill="white"/>
<path d="M129.742 71.3318C129.742 71.8283 129.742 83.8691 129.742 83.8691H141.503V71.3318H129.742Z" fill="#EBEBEB"/>
<path d="M194.327 70.2645C196.164 74.6934 195.896 79.5909 194.327 84.7761H129.108V83.869H133.263C136.725 83.869 139.532 81.0629 139.532 77.6003C139.532 74.1389 136.726 71.3317 133.263 71.3317H128.876V70L194.327 70.2645Z" fill="#455A64"/>
<path d="M136.678 72.2875C136.678 72.3582 149.737 72.4162 165.844 72.4162C181.955 72.4162 195.012 72.3582 195.012 72.2875C195.012 72.2167 181.955 72.1587 165.844 72.1587C149.737 72.1599 136.678 72.2167 136.678 72.2875Z" fill="white"/>
<path d="M136.118 83.18C136.118 83.2508 149.248 83.3088 165.441 83.3088C181.641 83.3088 194.769 83.2508 194.769 83.18C194.769 83.1093 181.641 83.0513 165.441 83.0513C149.249 83.0524 136.118 83.1093 136.118 83.18Z" fill="white"/>
<path d="M129.742 77.7674C129.742 77.8382 131.933 77.8962 134.633 77.8962C137.335 77.8962 139.524 77.8394 139.524 77.7674C139.524 77.6967 137.335 77.6387 134.633 77.6387C131.933 77.6387 129.742 77.6967 129.742 77.7674Z" fill="#E0E0E0"/>
<path d="M129.742 80.5931C129.742 80.6639 131.742 80.7219 134.21 80.7219C136.677 80.7219 138.677 80.6639 138.677 80.5931C138.677 80.5224 136.677 80.4644 134.21 80.4644C131.742 80.4644 129.742 80.5212 129.742 80.5931Z" fill="#E0E0E0"/>
<path d="M129.678 83.1764C129.678 83.2471 131.137 83.3051 132.937 83.3051C134.739 83.3051 136.198 83.2471 136.198 83.1764C136.198 83.1056 134.739 83.0476 132.937 83.0476C131.137 83.0476 129.678 83.1056 129.678 83.1764Z" fill="#E0E0E0"/>
<path d="M129.658 75.2293C129.658 75.3001 131.764 75.3581 134.363 75.3581C136.961 75.3581 139.068 75.3013 139.068 75.2293C139.068 75.1586 136.961 75.1006 134.363 75.1006C131.764 75.1006 129.658 75.1586 129.658 75.2293Z" fill="#E0E0E0"/>
<path d="M129.742 72.6913C129.742 72.762 131.371 72.82 133.381 72.82C135.392 72.82 137.02 72.7632 137.02 72.6913C137.02 72.6205 135.392 72.5625 133.381 72.5625C131.372 72.5625 129.742 72.6205 129.742 72.6913Z" fill="#E0E0E0"/>
<path d="M123.216 56.7585C123.216 57.255 123.216 69.2958 123.216 69.2958H147.475V56.7585H123.216Z" fill="#EBEBEB"/>
<path d="M201.565 63.1433C201.562 63.2535 201.556 63.3648 201.551 63.475C201.354 67.2682 198.133 70.2019 194.335 70.2019H122.085V69.2947H139.237C142.7 69.2947 145.506 66.4887 145.506 63.0261C145.506 59.5635 142.7 56.7575 139.237 56.7575H122.085V55.4258L194.356 55.6705C198.435 55.6856 201.715 59.067 201.565 63.1433Z" fill="#FF725E"/>
<path d="M123.216 63.1954C123.216 63.2662 128.204 63.3242 134.356 63.3242C140.51 63.3242 145.496 63.2662 145.496 63.1954C145.496 63.1247 140.51 63.0667 134.356 63.0667C128.204 63.0667 123.216 63.1235 123.216 63.1954Z" fill="#E0E0E0"/>
<path d="M123.567 66.0201C123.567 66.0909 128.287 66.1489 134.108 66.1489C139.931 66.1489 144.65 66.092 144.65 66.0201C144.65 65.9494 139.931 65.8914 134.108 65.8914C128.287 65.8914 123.567 65.9494 123.567 66.0201Z" fill="#E0E0E0"/>
<path d="M123.216 68.6034C123.216 68.6741 127.46 68.7321 132.694 68.7321C137.929 68.7321 142.172 68.6753 142.172 68.6034C142.172 68.5326 137.929 68.4746 132.694 68.4746C127.46 68.4746 123.216 68.5326 123.216 68.6034Z" fill="#E0E0E0"/>
<path d="M123.216 60.6561C123.216 60.7269 128.102 60.7849 134.127 60.7849C140.155 60.7849 145.039 60.7269 145.039 60.6561C145.039 60.5853 140.155 60.5273 134.127 60.5273C128.102 60.5285 123.216 60.5853 123.216 60.6561Z" fill="#E0E0E0"/>
<path d="M123.567 58.1183C123.567 58.189 127.915 58.247 133.279 58.247C138.644 58.247 142.993 58.189 142.993 58.1183C142.993 58.0475 138.645 57.9895 133.279 57.9895C127.915 57.9895 123.567 58.0475 123.567 58.1183Z" fill="#E0E0E0"/>
<path d="M146.022 78.5273H184.865C185.494 78.5273 186.004 78.0169 186.004 77.3881C186.004 76.7594 185.493 76.249 184.865 76.249H146.022C145.393 76.249 144.883 76.7594 144.883 77.3881C144.883 78.0169 145.393 78.5273 146.022 78.5273Z" fill="white"/>
<path d="M154.246 64.2057H193.089C193.718 64.2057 194.228 63.6953 194.228 63.0666C194.228 62.4379 193.718 61.9275 193.089 61.9275H154.246C153.618 61.9275 153.107 62.4379 153.107 63.0666C153.107 63.6953 153.616 64.2057 154.246 64.2057Z" fill="white"/>
<path d="M444.645 186.038C457.338 170.937 455.385 148.405 440.284 135.713C425.182 123.02 402.651 124.972 389.958 140.074C377.265 155.175 379.218 177.707 394.32 190.4C409.421 203.092 431.953 201.14 444.645 186.038Z" fill="white"/>
<path d="M453.023 163.037C453.023 163.037 452.993 162.841 452.963 162.459C452.935 162.052 452.897 161.489 452.847 160.764C452.823 160.39 452.798 159.973 452.769 159.516C452.719 159.059 452.62 158.564 452.539 158.026C452.368 156.949 452.204 155.701 451.791 154.344C451.159 151.588 449.865 148.333 447.828 144.883C445.775 141.447 442.815 137.859 438.785 134.814C434.768 131.798 429.7 129.232 423.849 128.196C422.383 127.99 420.9 127.687 419.364 127.68C418.6 127.655 417.83 127.579 417.053 127.592C416.276 127.633 415.495 127.673 414.706 127.714C414.313 127.742 413.915 127.738 413.521 127.79L412.339 127.972C411.551 128.103 410.748 128.196 409.954 128.361C408.39 128.788 406.769 129.106 405.229 129.75C403.639 130.259 402.144 131.045 400.607 131.782C399.859 132.188 399.142 132.661 398.401 133.101C397.646 133.522 396.955 134.045 396.263 134.574C394.822 135.562 393.564 136.8 392.245 137.99C391.053 139.309 389.801 140.6 388.774 142.097C386.665 145.024 384.825 148.277 383.711 151.854C382.556 155.41 381.935 159.186 381.882 163.029C381.934 166.873 382.553 170.651 383.707 174.208C384.821 177.786 386.662 181.04 388.771 183.969C389.798 185.467 391.05 186.758 392.242 188.077C393.561 189.268 394.821 190.506 396.261 191.494C396.953 192.023 397.645 192.547 398.399 192.968C399.14 193.408 399.857 193.881 400.605 194.287C402.142 195.025 403.637 195.81 405.226 196.32C406.767 196.965 408.387 197.281 409.952 197.708C410.746 197.873 411.548 197.966 412.337 198.097L413.519 198.279C413.912 198.331 414.31 198.329 414.703 198.355C415.491 198.396 416.274 198.438 417.05 198.477C417.826 198.489 418.598 198.415 419.362 198.389C420.898 198.381 422.38 198.079 423.847 197.873C429.698 196.836 434.766 194.271 438.783 191.254C442.813 188.209 445.772 184.62 447.825 181.185C449.861 177.735 451.155 174.48 451.786 171.724C452.199 170.367 452.363 169.119 452.535 168.042C452.616 167.504 452.714 167.009 452.764 166.552C452.793 166.095 452.819 165.678 452.842 165.305C452.892 164.58 452.93 164.017 452.958 163.61C452.992 163.233 453.023 163.037 453.023 163.037C453.023 163.037 453.033 163.233 453.024 163.616C453.01 164.024 452.992 164.589 452.968 165.316C452.953 165.693 452.937 166.111 452.92 166.57C452.88 167.03 452.791 167.528 452.718 168.071C452.564 169.156 452.417 170.414 452.02 171.784C451.417 174.567 450.148 177.862 448.12 181.36C446.075 184.845 443.107 188.492 439.046 191.596C434.999 194.671 429.873 197.294 423.943 198.368C422.457 198.584 420.954 198.895 419.396 198.909C418.621 198.938 417.839 199.015 417.051 199.005C416.264 198.967 415.469 198.927 414.67 198.889C414.271 198.862 413.867 198.865 413.467 198.814L412.266 198.633C411.465 198.502 410.65 198.409 409.844 198.244C408.254 197.816 406.608 197.496 405.041 196.846C403.425 196.331 401.904 195.538 400.342 194.791C399.581 194.38 398.85 193.901 398.097 193.456C397.33 193.029 396.627 192.497 395.922 191.961C394.457 190.958 393.174 189.704 391.833 188.494C390.618 187.157 389.346 185.844 388.298 184.323C386.151 181.347 384.278 178.039 383.142 174.4C381.966 170.783 381.334 166.94 381.283 163.032C381.334 159.125 381.967 155.283 383.145 151.668C384.28 148.03 386.154 144.722 388.301 141.749C389.347 140.228 390.621 138.917 391.834 137.578C393.175 136.368 394.458 135.115 395.923 134.111C396.628 133.575 397.331 133.044 398.098 132.617C398.851 132.172 399.582 131.693 400.343 131.282C401.905 130.535 403.426 129.741 405.042 129.226C406.608 128.577 408.255 128.255 409.844 127.829C410.65 127.664 411.465 127.571 412.266 127.44L413.467 127.259C413.867 127.207 414.27 127.21 414.669 127.184C415.468 127.144 416.263 127.106 417.05 127.068C417.838 127.057 418.62 127.135 419.395 127.164C420.952 127.178 422.455 127.488 423.942 127.703C429.872 128.776 434.997 131.399 439.045 134.473C443.106 137.576 446.075 141.224 448.12 144.709C450.148 148.209 451.419 151.503 452.021 154.286C452.419 155.657 452.565 156.916 452.719 158C452.791 158.543 452.88 159.042 452.921 159.501C452.938 159.961 452.954 160.379 452.97 160.756C452.994 161.484 453.012 162.05 453.025 162.458C453.033 162.841 453.023 163.037 453.023 163.037Z" fill="#263238"/>
<path d="M433.825 159.485C433.636 157.4 432.674 155.431 431.317 153.837C429.988 152.276 428.234 151.029 426.241 150.545C424.124 150.032 421.803 150.43 419.979 151.62C418.895 152.328 417.996 153.31 417.363 154.44C416.794 153.411 416.004 152.503 415.05 151.814C413.285 150.539 410.985 150.031 408.845 150.444C406.832 150.832 405.021 151.996 403.62 153.492C402.189 155.02 401.135 156.942 400.848 159.015C400.489 161.611 400.925 164.473 402.222 166.751C403.592 169.157 405.85 171.127 408.188 172.61C412.117 175.105 417.294 178.236 417.294 178.236C417.294 178.236 421.808 175.023 425.851 172.717C428.256 171.345 430.605 169.484 432.086 167.147C433.491 164.933 434.062 162.095 433.825 159.485Z" fill="#FF725E"/>
<path d="M383.595 204.048C386.517 204.048 388.885 201.679 388.885 198.757C388.885 195.835 386.517 193.466 383.595 193.466C380.673 193.466 378.304 195.835 378.304 198.757C378.304 201.679 380.673 204.048 383.595 204.048Z" fill="white"/>
<path d="M388.885 198.757C388.827 198.759 388.832 198.286 388.606 197.493C388.382 196.716 387.84 195.585 386.666 194.721C385.532 193.855 383.676 193.377 381.887 194.049C380.113 194.667 378.586 196.555 378.605 198.757C378.586 200.96 380.112 202.848 381.887 203.465C383.676 204.138 385.532 203.66 386.666 202.794C387.84 201.929 388.382 200.798 388.606 200.021C388.833 199.228 388.827 198.753 388.885 198.757C388.906 198.757 388.92 198.873 388.929 199.098C388.942 199.322 388.921 199.657 388.834 200.077C388.671 200.906 388.164 202.149 386.926 203.131C385.731 204.115 383.699 204.704 381.698 203.987C379.714 203.334 377.978 201.227 378.002 198.756C377.979 196.285 379.714 194.178 381.698 193.525C383.699 192.808 385.731 193.396 386.926 194.38C388.164 195.364 388.672 196.606 388.835 197.434C388.922 197.855 388.943 198.189 388.931 198.413C388.921 198.64 388.906 198.757 388.885 198.757Z" fill="#263238"/>
<path d="M160.434 510.194L130.984 507.284C130.984 507.284 101.081 529.154 95.5156 525.944L132.553 469.94L158.616 486.985L160.434 510.194Z" fill="#263238"/>
<path d="M144.863 491.571C145.284 490.292 144.56 488.737 143.299 488.264C142.039 487.791 140.45 488.513 140.007 489.786C139.564 491.057 140.375 492.95 141.682 493.28C142.989 493.608 144.806 492.659 144.93 491.317" fill="#E0E0E0"/>
<path d="M132.553 469.939L136.989 473.094L99.8192 525.61C99.8192 525.61 97.085 527.386 95.5156 525.943L132.553 469.939Z" fill="#455A64"/>
<path d="M130.669 508.379C130.401 508.189 131.182 506.74 131.193 504.813C131.254 502.887 130.528 501.409 130.803 501.229C131.022 501.012 132.387 502.501 132.334 504.834C132.3 507.167 130.88 508.605 130.669 508.379Z" fill="white"/>
<path d="M124.354 512.647C124.048 512.534 124.366 511.043 123.824 509.348C123.331 507.638 122.236 506.577 122.429 506.312C122.555 506.027 124.281 506.897 124.916 509.016C125.569 511.129 124.619 512.814 124.354 512.647Z" fill="white"/>
<path d="M115.117 511.334C115.224 511.047 116.842 511.571 117.875 513.263C118.921 514.948 118.659 516.629 118.354 516.595C118.026 516.6 117.772 515.239 116.902 513.862C116.066 512.464 114.965 511.624 115.117 511.334Z" fill="white"/>
<path d="M138.907 508.514C138.733 508.234 139.94 507.23 140.856 505.614C141.807 504.018 142.084 502.471 142.412 502.484C142.715 502.456 142.95 504.301 141.842 506.188C140.752 508.082 139.033 508.79 138.907 508.514Z" fill="white"/>
<path d="M122.934 396.9C121.401 396.527 105.609 425.173 105.514 444.116C105.417 463.325 116.806 479.796 133.045 485.785C146.9 490.895 153.251 492.166 153.251 492.166L152.785 510.52C152.785 510.52 212.273 516.094 244.973 515.562C277.674 515.03 288.576 507.32 293.892 493.495C299.209 479.67 295.487 477.012 295.487 477.012C295.487 477.012 299.209 471.163 292.562 463.453C285.916 455.742 244.707 433.942 206.423 425.434L205.094 412.407L122.934 396.9Z" fill="#263238"/>
<path d="M259.6 502.582C259.595 502.591 259.493 502.557 259.299 502.483C259.074 502.392 258.794 502.279 258.444 502.138C257.692 501.841 256.614 501.329 255.162 500.827C252.296 499.733 248.057 498.355 242.669 497.307C237.288 496.236 230.781 495.485 223.526 495.227C216.27 494.941 208.286 495.154 199.897 495.364C191.506 495.549 183.496 495.558 176.226 495.153C168.956 494.77 162.428 494.027 157.008 493.036C151.586 492.051 147.284 490.849 144.357 489.896C142.892 489.425 141.787 488.962 141.026 488.686C140.677 488.549 140.394 488.438 140.169 488.35C139.977 488.271 139.88 488.225 139.884 488.215C139.888 488.206 139.992 488.231 140.191 488.292C140.421 488.366 140.71 488.457 141.069 488.572C141.842 488.811 142.957 489.237 144.429 489.673C147.37 490.555 151.671 491.688 157.083 492.616C162.492 493.55 169.002 494.247 176.254 494.598C183.506 494.971 191.499 494.945 199.884 494.761C208.265 494.551 216.272 494.355 223.548 494.672C230.825 494.96 237.358 495.76 242.753 496.889C248.155 497.996 252.397 499.443 255.245 500.608C256.689 501.147 257.755 501.697 258.493 502.029C258.832 502.193 259.105 502.324 259.324 502.428C259.511 502.519 259.604 502.571 259.6 502.582Z" fill="#455A64"/>
<path d="M187.231 428.987C187.237 429.028 186.522 429.179 185.229 429.417C183.933 429.643 182.068 430.02 179.777 430.538C175.195 431.568 168.934 433.338 162.303 436.057C155.674 438.791 149.979 441.937 145.999 444.429C144.006 445.672 142.416 446.717 141.336 447.468C140.249 448.209 139.636 448.603 139.611 448.57C139.586 448.536 140.151 448.078 141.199 447.276C142.238 446.466 143.797 445.364 145.769 444.069C149.706 441.475 155.406 438.248 162.073 435.499C168.743 432.764 175.063 431.047 179.686 430.121C181.998 429.654 183.882 429.342 185.192 429.185C186.5 429.018 187.225 428.946 187.231 428.987Z" fill="#455A64"/>
<path d="M296.741 480.856C296.714 480.862 296.611 480.427 296.367 479.616C296.125 478.805 295.7 477.625 294.976 476.193C293.538 473.338 290.675 469.515 285.983 466.175C281.339 462.765 275.03 459.97 268.131 456.73C261.215 453.514 253.584 450.033 245.458 446.657C229.222 439.847 214.001 434.995 202.758 432.435C199.95 431.785 197.396 431.253 195.149 430.813C192.893 430.419 190.959 430.024 189.363 429.789C187.803 429.549 186.574 429.361 185.692 429.226C185.301 429.159 184.988 429.106 184.738 429.063C184.524 429.024 184.414 428.998 184.416 428.988C184.416 428.988 191.567 429.497 202.852 432.02C214.144 434.479 229.429 439.28 245.689 446.101C253.828 449.482 261.458 452.982 268.366 456.228C275.246 459.492 281.569 462.34 286.235 465.832C290.948 469.253 293.799 473.172 295.188 476.09C295.888 477.555 296.279 478.758 296.486 479.585C296.603 479.994 296.648 480.318 296.696 480.531C296.735 480.744 296.751 480.854 296.741 480.856Z" fill="#455A64"/>
<path d="M179.339 428.987C179.343 429.028 178.858 429.107 177.983 429.215C177.108 429.316 175.842 429.48 174.283 429.705C171.166 430.15 166.882 430.932 162.25 432.199C157.619 433.474 153.535 434.989 150.628 436.196C149.174 436.798 148.002 437.304 147.197 437.663C146.39 438.018 145.933 438.197 145.914 438.16C145.896 438.123 146.315 437.873 147.095 437.452C147.871 437.027 149.019 436.459 150.459 435.804C153.337 434.49 157.427 432.899 162.091 431.615C166.756 430.339 171.085 429.619 174.23 429.28C175.803 429.108 177.08 429.01 177.964 428.981C178.848 428.945 179.337 428.945 179.339 428.987Z" fill="#455A64"/>
<path d="M131.24 173.572C134.983 166.146 132.333 156.316 125.776 151.198C119.22 146.081 109.571 145.701 102.241 149.631C94.9112 153.562 90.0009 161.351 88.8096 169.583C87.7401 176.973 89.6552 184.962 94.7708 190.404C99.8864 195.844 108.352 198.223 115.238 195.334C112.668 199.169 110.1 203.005 107.531 206.84C106.404 208.52 105.349 210.982 106.853 212.335C108.3 213.636 110.575 212.474 112.065 211.223C116.142 207.806 119.686 203.759 122.538 199.268C121.181 201.737 119.78 204.4 120.051 207.205C120.321 210.009 123.086 212.73 125.759 211.839C127.801 211.158 128.752 208.872 129.457 206.839C131.291 201.554 133.125 196.269 134.959 190.984L131.24 173.572Z" fill="#263238"/>
<path d="M134.175 209.998C134.14 210.044 133.504 209.642 132.479 208.752C131.449 207.869 130.088 206.423 128.724 204.401C125.967 200.406 123.571 193.747 123.948 186.258C124.337 178.776 127.008 172.417 129.302 168.198C130.457 166.071 131.518 164.427 132.3 163.326C133.081 162.225 133.561 161.652 133.617 161.689C133.767 161.786 132.08 164.25 129.952 168.533C127.849 172.789 125.358 179.048 124.983 186.308C124.62 193.558 126.817 200.02 129.34 204.006C131.846 208.059 134.33 209.839 134.175 209.998Z" fill="#455A64"/>
<path d="M134.004 158.627C143.516 146.334 156.542 139.053 172.07 138.374C180.83 137.991 184.507 139.714 190.865 141.246C197.223 142.777 203.01 146.009 206.921 151.251C211.565 157.478 215.515 164.485 216.571 172.18C217.654 180.085 218.741 188.044 218.358 196.015C217.976 203.985 216.033 212.054 211.525 218.638L191.381 222.703C180.214 223.387 168.892 224.061 157.934 221.806C146.975 219.552 136.236 213.981 130.146 204.595C121.685 191.558 124.492 170.919 134.004 158.627Z" fill="#263238"/>
<path d="M152.009 158.005L178.699 146.547L185.769 147.175C201.63 146.8 213.043 163.995 213.496 176.837C213.998 191.104 214.049 208.544 212.068 219.124C208.082 240.398 190.079 242.649 190.079 242.649L190.48 249.558L187.954 300.595L155.711 280.131L149.713 242.066L145.074 165.441C145.104 161.538 148.118 158.309 152.009 158.005Z" fill="#FFBF9D"/>
<path d="M207.356 194.589C207.366 196.038 206.149 197.242 204.636 197.281C203.126 197.321 201.891 196.182 201.879 194.733C201.868 193.284 203.086 192.079 204.595 192.04C206.109 191.999 207.344 193.141 207.356 194.589Z" fill="#263238"/>
<path d="M208.855 184.104C208.505 184.452 206.471 182.858 203.522 182.784C200.577 182.668 198.37 184.125 198.061 183.754C197.908 183.591 198.273 182.955 199.233 182.295C200.18 181.637 201.781 181.018 203.618 181.076C205.455 181.138 206.981 181.857 207.85 182.574C208.737 183.294 209.026 183.949 208.855 184.104Z" fill="#263238"/>
<path d="M190.558 207.711C190.549 207.543 192.391 207.277 195.372 206.98C196.127 206.923 196.844 206.793 196.985 206.283C197.178 205.743 196.886 204.923 196.545 204.037C195.887 202.195 195.199 200.265 194.476 198.241C191.611 189.992 189.558 183.216 189.891 183.104C190.225 182.991 192.819 189.587 195.685 197.836C196.373 199.869 197.032 201.809 197.658 203.662C197.919 204.527 198.383 205.51 197.967 206.629C197.747 207.185 197.185 207.579 196.698 207.696C196.21 207.829 195.787 207.826 195.415 207.838C192.42 207.917 190.565 207.879 190.558 207.711Z" fill="#263238"/>
<path d="M190.111 242.626C190.111 242.626 175.71 243.155 161.705 234.199C161.705 234.199 168.918 249.223 190.361 247.816L190.111 242.626Z" fill="#FF9A6C"/>
<path d="M207.572 173.819C207.056 174.526 204.811 173.982 202.167 174.128C199.518 174.189 197.317 174.908 196.756 174.244C196.506 173.92 196.814 173.225 197.747 172.527C198.669 171.831 200.245 171.207 202.064 171.134C203.883 171.064 205.497 171.562 206.463 172.185C207.444 172.809 207.798 173.476 207.572 173.819Z" fill="#263238"/>
<path d="M176.695 195.371C176.658 196.82 177.853 198.045 179.365 198.111C180.873 198.178 182.129 197.061 182.168 195.612C182.205 194.163 181.008 192.937 179.501 192.871C177.988 192.804 176.732 193.923 176.695 195.371Z" fill="#263238"/>
<path d="M168.974 184.046C169.317 184.4 171.379 182.843 174.329 182.822C177.276 182.759 179.455 184.256 179.772 183.891C179.928 183.73 179.575 183.089 178.626 182.411C177.691 181.737 176.102 181.088 174.264 181.113C172.427 181.141 170.888 181.834 170.006 182.534C169.106 183.238 168.804 183.887 168.974 184.046Z" fill="#263238"/>
<path d="M170.489 174.563C171.076 175.226 173.346 174.51 176.082 174.45C178.816 174.305 181.141 174.85 181.668 174.145C181.898 173.803 181.526 173.135 180.508 172.51C179.503 171.889 177.83 171.389 175.949 171.457C174.07 171.529 172.446 172.152 171.5 172.848C170.54 173.545 170.229 174.239 170.489 174.563Z" fill="#263238"/>
<path d="M149.711 201.199C149.751 199.607 148.016 195.805 146.451 195.516C142.273 194.746 134.699 194.873 134.333 205.529C133.833 220.095 148.561 217.593 148.601 217.176C148.633 216.849 149.572 206.694 149.711 201.199Z" fill="#FFBF9D"/>
<path d="M144.766 211.716C144.704 211.668 144.506 211.886 144.071 212.068C143.645 212.244 142.921 212.353 142.172 212.042C140.652 211.425 139.441 208.937 139.461 206.309C139.469 204.982 139.789 203.73 140.295 202.7C140.776 201.649 141.491 200.928 142.272 200.818C143.048 200.666 143.581 201.149 143.746 201.564C143.927 201.978 143.824 202.267 143.9 202.294C143.94 202.332 144.222 202.06 144.125 201.456C144.075 201.164 143.917 200.815 143.582 200.522C143.243 200.226 142.734 200.064 142.192 200.104C141.065 200.143 140.019 201.142 139.463 202.272C138.846 203.405 138.454 204.811 138.445 206.301C138.438 209.24 139.845 212.038 141.931 212.719C142.946 213.02 143.811 212.742 144.265 212.412C144.727 212.068 144.814 211.744 144.766 211.716Z" fill="#FF9A6C"/>
<path d="M145.858 195.574L149.657 199.306C165.198 183.6 195.344 144.515 193.665 146.84C193.665 146.84 182.613 142.641 170.803 144.984C158.994 147.327 136.651 153.875 137.376 167.859C138.101 181.843 145.858 195.574 145.858 195.574Z" fill="#263238"/>
<path d="M124.641 192.936C124.616 192.929 124.685 192.639 124.84 192.088C125 191.54 125.29 190.745 125.771 189.769C126.73 187.827 128.594 185.184 131.662 182.765C134.683 180.286 138.908 178.214 143.739 176.547C148.56 174.831 154.011 173.451 159.331 170.994C164.689 168.623 169.441 165.624 173.48 162.558C177.505 159.461 180.811 156.273 183.381 153.417C185.95 150.558 187.806 148.051 189.056 146.299C189.629 145.465 190.094 144.789 190.46 144.255C190.785 143.79 190.967 143.551 190.989 143.564C191.011 143.578 190.873 143.842 190.588 144.334C190.297 144.823 189.887 145.557 189.296 146.462C188.115 148.271 186.313 150.841 183.775 153.767C181.237 156.689 177.94 159.947 173.9 163.103C169.846 166.228 165.053 169.279 159.637 171.675C154.247 174.162 148.757 175.528 143.965 177.197C139.154 178.82 134.994 180.801 131.987 183.181C128.935 185.501 127.05 188.035 126.027 189.905C125.011 191.79 124.717 192.961 124.641 192.936Z" fill="#455A64"/>
<path d="M128.936 195.11C128.936 195.11 128.756 193.923 129.414 191.916C130.038 189.926 131.688 187.2 134.692 184.921C137.668 182.571 141.964 181.053 146.698 179.835C151.453 178.649 156.608 177.159 161.648 174.64C166.68 172.142 171.177 169.158 174.868 165.976C178.58 162.818 181.555 159.561 183.838 156.667C186.151 153.788 187.683 151.212 188.785 149.465C189.263 148.624 189.653 147.939 189.963 147.395C190.239 146.926 190.397 146.683 190.419 146.695C190.442 146.706 190.33 146.971 190.096 147.464C189.818 148.028 189.467 148.736 189.038 149.607C188.009 151.408 186.535 154.044 184.256 156.99C182.006 159.95 179.042 163.276 175.314 166.498C171.608 169.742 167.07 172.781 161.978 175.31C156.888 177.856 151.618 179.357 146.873 180.499C142.145 181.677 137.937 183.115 135.011 185.342C132.046 187.508 130.382 190.102 129.689 192.014C128.963 193.937 129.035 195.125 128.936 195.11Z" fill="#455A64"/>
<path d="M181.002 211.09C180.607 210.861 180.182 210.626 179.728 210.662C179.309 210.694 178.944 210.955 178.639 211.245C177.204 212.612 176.711 214.88 177.45 216.718C178.189 218.558 180.112 219.854 182.094 219.848C184.077 219.842 186.431 218.709 187.62 215.119C185.538 213.918 183.08 212.293 181.002 211.09Z" fill="#FF9A6C"/>
<path d="M182.094 219.988C182.127 219.851 180.759 219.957 179.223 218.741C178.481 218.147 177.754 217.195 177.532 215.97C177.298 214.759 177.568 213.295 178.429 212.157C178.864 211.61 179.419 211.073 179.923 211.157C180.456 211.225 181.086 211.705 181.654 212.016C182.743 212.647 183.764 213.239 184.71 213.787C186.461 214.778 187.568 215.346 187.618 215.26C187.668 215.174 186.651 214.449 184.965 213.347C184.043 212.758 183.048 212.121 181.987 211.443C181.4 211.122 180.92 210.634 180.005 210.459C179.534 210.392 179.056 210.592 178.727 210.845C178.386 211.102 178.119 211.4 177.859 211.723C176.859 213.048 176.581 214.717 176.885 216.101C177.182 217.511 178.063 218.552 178.918 219.149C180.702 220.368 182.145 220.039 182.094 219.988Z" fill="#263238"/>
<path d="M260.943 300.563C260.943 300.563 260.391 280.16 260.858 277.045C261.326 273.93 259.768 272.685 258.367 272.776C256.965 272.869 255.875 279.849 255.875 279.849C255.875 279.849 256.965 268.79 256.81 267.234C256.655 265.676 254.786 263.807 252.605 264.898C250.424 265.988 248.556 270.816 248.556 270.816C248.556 270.816 247.42 269.25 245.644 271.637C244.808 272.761 241.01 290.596 241.01 290.596C241.01 290.596 239.99 289.973 237.773 288.224C235.557 286.475 233.449 287.014 233.449 287.014L237.773 298.512L238.236 300.561L242.716 320.399L230.578 328.629L239.583 345.997C239.583 345.997 261.173 325.329 263.042 320.4C264.908 315.469 260.943 300.563 260.943 300.563Z" fill="#FFBF9D"/>
<path d="M240.332 300.281C240.197 300.339 239.448 297.807 239.977 294.689C240.212 293.147 240.548 291.797 240.779 290.815C241.016 289.836 241.185 289.232 241.27 289.246C241.35 289.259 241.329 289.888 241.199 290.894C241.075 291.899 240.804 293.272 240.576 294.778C240.061 297.783 240.52 300.248 240.332 300.281Z" fill="#FF9A6C"/>
<path d="M245.237 292.648C245.072 292.622 245.704 287.783 246.648 281.841C247.593 275.897 248.493 271.101 248.658 271.127C248.822 271.153 248.19 275.991 247.246 281.935C246.302 287.878 245.401 292.675 245.237 292.648Z" fill="#FF9A6C"/>
<path d="M248.98 292.487C248.817 292.456 249.831 286.422 251.247 279.012C252.663 271.6 253.944 265.619 254.107 265.65C254.271 265.682 253.256 271.714 251.839 279.126C250.425 286.536 249.144 292.518 248.98 292.487Z" fill="#FF9A6C"/>
<path d="M253.617 295.342C253.452 295.319 253.874 291.446 254.561 286.696C255.248 281.944 255.938 278.112 256.104 278.137C256.268 278.161 255.846 282.031 255.159 286.783C254.473 291.532 253.782 295.365 253.617 295.342Z" fill="#FF9A6C"/>
<path d="M217.631 424.359C217.631 424.799 218.191 427.495 219.993 429.516C221.794 431.535 225.826 432.853 225.826 432.853C225.826 432.853 228.948 437.978 231.16 438.857C233.372 439.735 235.192 439.443 234.673 436.66C234.152 433.877 231.227 430.378 231.227 430.378C231.227 430.378 238.445 433.877 238.966 434.463C239.487 435.049 246.94 442.837 248.63 443.276C250.321 443.715 251.424 442.251 251.424 442.251C251.424 442.251 253.764 443.933 254.868 443.568C256.122 443.153 255.713 442.178 255.713 442.178L252.624 438.124L239.224 425.676L229.599 420.99L218.89 389.211L216.98 392.287C216.98 392.287 210.086 407.077 210.216 407.81C210.346 408.543 217.631 424.359 217.631 424.359Z" fill="#FFBF9D"/>
<path d="M210.914 413.213L216.269 421.392L227.899 415.949L220.478 378.25L210.914 413.213Z" fill="#FF725E"/>
<path d="M218.883 313.702C214.764 298.943 194.286 260.674 189.906 253.181L148.218 241.735C148.218 241.735 139.409 247.064 128.515 264.572C116.181 284.394 119.383 323.359 120.755 333.312C122.128 343.266 123.401 368.928 123.401 368.928C123.401 368.928 116.158 379.418 117.873 386.969C119.589 394.521 122.934 398.226 122.934 398.226L207.371 416.417C212.476 414.566 216.158 410.061 216.936 404.687C217.485 400.897 218.276 395.944 219.384 389.988C222.13 375.229 223.002 328.461 218.883 313.702Z" fill="#FF725E"/>
<path d="M191.297 333.423L230.007 327.532L241.009 348.748C241.009 348.748 193.269 384.01 185.411 387.416C177.553 390.82 167.545 387.287 159.991 385.19C150.371 382.519 147.702 375.757 142.725 369.995C137.749 364.232 123.663 313.912 123.663 313.912C123.663 313.912 122.615 315.484 124.71 297.149C126.805 278.814 143.57 259.168 153.261 262.05C162.953 264.931 179.979 286.148 180.764 294.792C181.549 303.436 188.001 333.426 188.001 333.426H191.297V333.423Z" fill="#FF725E"/>
<path d="M170.829 278.517C170.798 278.572 170.07 278.157 168.685 277.572C167.306 276.981 165.247 276.232 162.6 275.794C159.963 275.338 156.731 275.211 153.246 275.835C149.766 276.444 146.073 277.892 142.755 280.277C139.425 282.649 136.743 285.54 134.545 288.325C132.344 291.118 130.592 293.815 129.12 296.075C127.655 298.343 126.475 300.185 125.628 301.437C125.205 302.063 124.871 302.546 124.635 302.867C124.401 303.188 124.27 303.352 124.252 303.34C124.235 303.329 124.332 303.143 124.534 302.8C124.774 302.399 125.071 301.908 125.431 301.309C126.264 299.943 127.389 298.095 128.76 295.845C130.189 293.552 131.911 290.82 134.109 287.981C136.305 285.151 139.01 282.204 142.409 279.783C145.792 277.348 149.598 275.874 153.152 275.286C156.716 274.679 160.008 274.854 162.677 275.371C165.357 275.873 167.423 276.694 168.783 277.356C169.477 277.666 169.978 277.98 170.323 278.18C170.665 278.384 170.839 278.5 170.829 278.517Z" fill="#263238"/>
<path d="M129.465 321.798C129.465 321.798 129.559 322.07 129.711 322.609C129.865 323.17 130.084 323.967 130.368 325.003C130.936 327.133 131.764 330.235 132.826 334.212C134.936 342.23 137.975 353.777 141.714 367.985L141.707 367.964C143.686 373.475 147.648 378.811 153.335 382.454C159.001 386.117 166.105 388.143 173.56 388.546C175.427 388.643 177.322 388.635 179.222 388.481C181.106 388.304 183.063 388.075 184.82 387.381C188.161 385.503 191.487 383.196 194.851 380.967C201.564 376.421 208.418 371.621 215.403 366.689C224.193 360.477 232.709 354.376 240.837 348.511L240.749 348.884C236.935 341.515 233.263 334.421 229.764 327.66L230.047 327.806C214.189 330.005 199.963 331.978 188.031 333.634L187.831 333.661L187.794 333.463C185.595 321.508 183.819 311.849 182.589 305.156C181.991 301.834 181.526 299.25 181.207 297.473C181.059 296.61 180.944 295.946 180.863 295.474C180.788 295.024 180.765 294.79 180.765 294.79C180.765 294.79 180.828 295.016 180.922 295.463C181.017 295.932 181.15 296.591 181.324 297.45C181.67 299.222 182.171 301.8 182.816 305.111C184.091 311.797 185.931 321.443 188.209 333.383L187.971 333.212C199.898 331.521 214.119 329.504 229.969 327.256L230.163 327.228L230.253 327.402C233.763 334.158 237.445 341.247 241.27 348.61L241.387 348.835L241.181 348.984C233.057 354.86 224.545 360.965 215.752 367.18C208.765 372.113 201.907 376.912 195.184 381.457C191.785 383.699 188.544 385.961 185.051 387.912C183.151 388.657 181.194 388.868 179.269 389.05C177.338 389.205 175.421 389.209 173.533 389.107C165.993 388.686 158.806 386.624 153.054 382.887C150.182 381.028 147.719 378.733 145.74 376.21C143.754 373.686 142.304 370.907 141.279 368.119L141.274 368.108L141.272 368.097C137.614 353.867 134.642 342.303 132.579 334.274C131.568 330.282 130.78 327.17 130.239 325.033C129.983 323.989 129.784 323.188 129.645 322.622C129.516 322.081 129.465 321.798 129.465 321.798Z" fill="#263238"/>
<path d="M176.856 360.985C176.815 360.977 176.857 360.558 176.968 359.807C177.075 359.054 177.279 357.971 177.574 356.643C178.161 353.988 179.191 350.358 180.729 346.497C182.274 342.636 184.028 339.295 185.433 336.966C186.134 335.8 186.731 334.876 187.173 334.256C187.61 333.635 187.869 333.302 187.904 333.325C187.984 333.377 187.103 334.806 185.804 337.178C184.503 339.549 182.824 342.891 181.291 346.721C179.764 350.552 178.679 354.129 177.989 356.745C177.297 359.36 176.95 361.002 176.856 360.985Z" fill="#263238"/>
<path d="M220.757 377.73C220.799 377.732 220.797 378.333 220.757 379.416C220.706 380.5 220.613 382.068 220.42 383.998C220.05 387.86 219.284 393.181 217.938 398.952C217.262 401.838 216.513 404.558 215.752 407.014C214.992 409.47 213.992 411.644 212.688 413.146C211.4 414.657 209.94 415.458 208.894 415.781C208.37 415.954 207.942 416.004 207.656 416.038C207.367 416.052 207.217 416.048 207.215 416.027C207.207 415.969 207.819 415.946 208.815 415.56C209.802 415.179 211.164 414.356 212.36 412.872C213.568 411.398 214.497 409.285 215.219 406.848C215.946 404.402 216.678 401.685 217.35 398.814C218.69 393.07 219.518 387.787 219.996 383.95C220.209 382.115 220.386 380.584 220.523 379.398C220.634 378.322 220.715 377.727 220.757 377.73Z" fill="#263238"/>
<path d="M284.015 224.22C284.015 224.22 283.867 245.704 287.81 254.549C292.492 265.052 302.427 266 302.427 266C302.427 266 301.895 268.9 319.46 274.045C324.488 275.517 329.703 280.12 330.493 281.835C333.228 287.775 332.972 290.805 332.676 296.993C332.367 303.471 331.246 313.909 331.246 313.909L379.098 296.13L366.836 234.999L327.448 222.951C327.448 222.951 323.291 225.584 317.552 224.292C311.813 223.001 281.35 217.432 284.015 224.22Z" fill="#AE7461"/>
<path d="M317.457 227.667C317.457 227.667 322.233 224.301 324.008 222.322C324.865 221.366 328.564 215.719 331.295 214.037C334.025 212.355 346.73 208.058 357.58 211.011C368.431 213.964 383.82 219.928 390.716 232.579C397.612 245.23 403.348 288.443 408.526 295.826C412.45 301.418 340.369 303.833 340.306 302.852C340.243 301.87 317.457 227.667 317.457 227.667Z" fill="#AE7461"/>
<path d="M333.487 296.172C331.973 299.201 331.091 320.875 330.586 345.609C330.081 370.344 346.719 408.014 346.719 408.014C346.719 408.014 365.793 443.064 373.87 457.198C381.946 471.331 394.566 497.076 400.623 502.123C406.681 507.172 490.731 504.311 491.988 502.123C494.897 497.069 497.065 491.462 498.674 486.115C502.585 473.121 500.901 459.082 494.257 447.25C490.71 440.932 487.446 435.305 487.446 435.997C487.446 437.51 493.503 442.559 492.999 433.977C492.494 425.395 480.379 414.291 480.379 414.291C480.379 414.291 484.961 412.991 478.904 405.477C472.846 397.962 455.646 383.498 446.559 363.307C437.473 343.116 426.596 327.041 419.529 312.908C412.462 298.774 402.073 278.564 399.046 272.457C396.016 266.351 333.487 296.172 333.487 296.172Z" fill="#AE7461"/>
<path d="M332.182 290.207C332.182 290.207 372.534 290.116 401.582 269.578C403.012 271.641 404.294 277.4 403.361 279.791C403.361 279.791 366.743 301.852 332.45 298.95C331.99 296.081 331.375 292.492 332.182 290.207Z" fill="#FF725E"/>
<g opacity="0.3">
<path d="M387.791 253.104L342.87 282.016C342.222 285.648 343.787 289.491 346.491 292.157C349.195 294.821 352.918 296.386 356.716 297.018C367.639 298.838 378.93 292.919 384.627 283.892C390.324 274.866 390.885 263.351 387.791 253.104Z" fill="black"/>
</g>
<path d="M379.69 231.229C382.806 237.35 385.939 243.515 387.845 250.115C389.749 256.713 390.37 263.847 388.418 270.431C384.896 282.304 373.383 290.529 361.285 293.176C355.612 294.417 348.866 294.297 345 289.964C342.431 287.085 341.753 282.909 342.251 279.082C342.749 275.255 344.279 271.652 345.669 268.052C350.576 255.346 353.904 242.033 355.553 228.513" fill="#AE7461"/>
<path d="M355.55 228.513C355.561 228.514 355.553 228.655 355.528 228.926C355.497 229.228 355.455 229.626 355.402 230.13C355.287 231.188 355.088 232.745 354.784 234.744C354.177 238.739 353.143 244.508 351.292 251.503C350.365 254.998 349.23 258.797 347.848 262.82C347.157 264.832 346.398 266.898 345.58 269.009C344.764 271.119 343.906 273.28 343.269 275.562C342.635 277.839 342.236 280.255 342.437 282.71C342.642 285.141 343.405 287.645 345.057 289.573C346.694 291.51 349.114 292.732 351.695 293.22C354.285 293.731 357.019 293.615 359.704 293.17C370.462 291.237 379.964 285.146 385.038 277.128C387.584 273.134 388.924 268.711 389.246 264.514C389.601 260.308 389.103 256.354 388.328 252.852C387.539 249.342 386.435 246.264 385.374 243.607C384.307 240.95 383.258 238.713 382.395 236.888C381.529 235.096 380.849 233.693 380.37 232.703C380.152 232.246 379.979 231.885 379.849 231.612C379.734 231.364 379.681 231.235 379.69 231.23C379.699 231.225 379.772 231.345 379.905 231.584C380.048 231.851 380.239 232.203 380.479 232.649C380.978 233.588 381.705 234.978 382.607 236.786C383.504 238.597 384.586 240.824 385.687 243.481C386.783 246.136 387.921 249.222 388.746 252.758C389.555 256.287 390.085 260.281 389.747 264.556C389.442 268.819 388.093 273.347 385.51 277.425C380.355 285.617 370.732 291.799 359.805 293.766C357.066 294.218 354.269 294.34 351.58 293.81C348.905 293.303 346.339 292.016 344.606 289.955C342.855 287.902 342.069 285.272 341.862 282.755C341.661 280.21 342.082 277.722 342.735 275.412C343.391 273.093 344.262 270.92 345.087 268.816C345.912 266.712 346.678 264.658 347.377 262.655C348.775 258.651 349.93 254.872 350.881 251.392C352.78 244.431 353.875 238.684 354.553 234.706C354.891 232.717 355.129 231.166 355.282 230.114C355.36 229.614 355.422 229.218 355.468 228.918C355.512 228.649 355.54 228.512 355.55 228.513Z" fill="#263238"/>
<g opacity="0.3">
<path d="M343.805 221.95C342.516 221.358 341.074 221.174 339.663 221.421C339.139 221.513 338.56 221.711 338.275 222.244C337.838 223.058 338.35 224.049 338.916 224.671C339.986 225.846 341.321 226.69 342.768 227.105C343.285 227.253 343.825 227.347 344.362 227.246C344.899 227.145 345.436 226.828 345.752 226.295C346.23 225.49 346.092 224.386 345.641 223.623C345.19 222.859 344.49 222.362 343.808 221.885" fill="black"/>
</g>
<path d="M336.638 233.642C336.166 235.953 333.908 237.444 331.596 236.972C329.285 236.5 327.794 234.242 328.266 231.931C328.738 229.619 330.996 228.128 333.307 228.6C335.619 229.073 337.11 231.331 336.638 233.642Z" fill="#263238"/>
<path d="M324.794 266.635C324.808 266.675 324.432 266.82 323.733 267.051C323.387 267.184 322.944 267.261 322.435 267.371C321.925 267.493 321.339 267.577 320.685 267.65C318.079 267.982 314.44 267.969 310.473 267.545C306.5 267.141 302.953 266.42 300.42 265.771C299.155 265.441 298.145 265.115 297.458 264.865C296.776 264.592 296.409 264.422 296.424 264.383C296.459 264.296 297.974 264.827 300.519 265.356C303.058 265.893 306.594 266.543 310.535 266.944C314.474 267.366 318.065 267.444 320.642 267.226C323.227 267.039 324.761 266.53 324.794 266.635Z" fill="#263238"/>
<path d="M372.172 265.877C372.194 265.878 372.203 266.216 372.164 266.852C372.111 267.487 371.985 268.421 371.65 269.574C370.993 271.84 369.386 275.135 365.942 277.606L365.49 277.929L365.553 277.372C366.114 272.351 366.511 266.197 366.417 259.564C366.395 258.171 366.356 256.799 366.3 255.457L366.885 255.533C365.596 259.592 363.632 263.114 361.528 265.899L360.87 266.77L361.062 265.699C361.882 261.107 362.57 257.252 363.069 254.452C363.318 253.157 363.52 252.11 363.674 251.307C363.822 250.583 363.914 250.198 363.942 250.203C363.97 250.208 363.93 250.601 363.833 251.334C363.714 252.142 363.561 253.199 363.371 254.503C362.924 257.313 362.31 261.179 361.577 265.786L361.109 265.587C363.151 262.82 365.057 259.346 366.314 255.353L366.824 253.732L366.899 255.43C366.958 256.778 367 258.156 367.022 259.555C367.117 266.218 366.677 272.398 366.047 277.43L365.659 277.197C369.013 274.859 370.655 271.69 371.379 269.489C372.106 267.242 372.087 265.866 372.172 265.877Z" fill="#263238"/>
<path d="M296.835 225.541C296.6 224.415 295.436 223.599 294.298 223.009C292.648 222.153 290.861 221.515 289.019 221.124C288.273 220.966 287.498 220.848 286.758 220.964C286.018 221.081 284.442 221.544 284.184 222.157C282.536 225.544 282.822 229.239 284.542 232.745C284.831 233.334 285.283 233.986 285.999 234.07C286.368 234.112 286.724 233.987 287.056 233.858C290.197 232.644 293.026 230.862 295.328 228.652C296.22 227.797 297.081 226.721 296.835 225.541Z" fill="#263238"/>
<path d="M289.425 223.305C288.854 222.723 288.236 222.114 287.439 221.943C286.885 221.825 286.115 222.161 285.686 222.651C285.412 222.963 285.46 223.459 285.795 223.705C286.69 224.362 287.753 224.791 288.854 224.935C289.219 224.982 289.655 224.971 289.872 224.671C290.179 224.247 289.791 223.678 289.425 223.305Z" fill="white"/>
<path d="M498.046 455.754C498.085 455.74 498.332 456.387 498.745 457.574C499.189 458.75 499.673 460.505 500.188 462.695C501.152 467.071 501.809 473.381 500.663 480.188C500.097 483.583 499.194 486.743 498.201 489.547C497.169 492.338 496.07 494.784 495.04 496.781C494.017 498.779 493.119 500.361 492.45 501.423C491.79 502.49 491.408 503.069 491.374 503.048C491.338 503.026 491.651 502.407 492.247 501.306C492.853 500.211 493.689 498.604 494.658 496.591C495.633 494.581 496.682 492.136 497.677 489.36C498.633 486.571 499.509 483.444 500.068 480.09C501.2 473.369 500.621 467.146 499.772 462.781C499.314 460.599 498.896 458.837 498.523 457.643C498.178 456.442 498.007 455.768 498.046 455.754Z" fill="#263238"/>
<path d="M391.26 336.565C401.322 323.313 388.355 295.892 366.081 302.025C343.808 308.158 339.933 326.881 339.933 326.881C339.933 326.881 336.06 331.4 333.154 336.242C330.25 341.084 325.856 339.721 325.856 339.721L306.684 302.671C306.684 302.671 283.148 287.416 274.216 281.974C272.6 280.989 270.512 282.002 270.271 283.88C269.634 288.837 268.968 297.436 271.124 302.254C274.563 309.937 290.872 311.455 290.872 311.455C290.872 311.455 295.709 324.299 298.937 331.078C302.165 337.857 303.133 353.029 303.133 354.966C303.133 356.903 303.26 367.382 303.582 370.288C303.905 373.194 306.362 371.106 306.362 371.106C307.008 378.208 321.825 388.356 324.407 390.94L322.858 381.7C322.858 381.7 329.246 388.082 331.207 388.287C333.167 388.492 329.892 382.671 329.892 382.671C329.892 382.671 342.142 381.458 348.448 378.669C354.755 375.877 385.195 344.551 391.26 336.565Z" fill="#AE7461"/>
<path d="M324.407 390.939C324.407 390.939 324.278 390.845 324.042 390.643C323.814 390.434 323.445 390.154 322.969 389.776C321.985 389.022 320.556 387.93 318.71 386.517C316.869 385.068 314.613 383.261 312.208 380.879C311.009 379.689 309.774 378.344 308.661 376.754C307.56 375.18 306.467 373.338 306.184 371.126L306.507 371.212C306.183 371.63 305.833 372.022 305.371 372.344C305.137 372.488 304.854 372.65 304.498 372.587C304.126 372.511 303.934 372.173 303.849 371.912C303.659 371.351 303.65 370.807 303.596 370.263C303.557 369.716 303.517 369.163 303.477 368.605C303.336 366.372 303.226 364.042 303.124 361.621C303.022 359.203 302.935 356.679 302.878 354.091C302.743 351.506 302.497 348.833 302.16 346.095C301.686 334.843 294.942 324.096 290.608 311.555L290.848 311.738C287.298 311.343 283.72 310.588 280.199 309.352C278.441 308.736 276.719 307.931 275.102 306.908C273.491 305.897 271.981 304.544 271.075 302.76C270.133 301.006 269.824 299.031 269.572 297.093C269.348 295.14 269.323 293.165 269.376 291.184C269.434 289.203 269.583 287.215 269.808 285.224L269.986 283.731C270.048 283.184 270.288 282.641 270.656 282.219C271.382 281.359 272.659 281.001 273.727 281.401C274.197 281.567 274.536 281.834 274.893 282.052L275.967 282.736L278.108 284.1C279.531 285.007 280.948 285.911 282.358 286.81C285.178 288.608 287.968 290.387 290.726 292.146C296.241 295.664 301.625 299.099 306.843 302.428L306.907 302.469L306.943 302.538C313.923 316.063 320.373 328.562 326.075 339.61L325.93 339.488C327.966 340.009 330.201 339.291 331.611 337.838C332.34 337.12 332.889 336.277 333.399 335.383C333.916 334.502 334.418 333.626 334.9 332.755C335.869 331.015 336.778 329.302 337.645 327.63C338.53 325.97 339.278 324.299 340.178 322.758C343.747 316.6 348.029 312.017 351.981 308.873C355.975 305.754 359.599 304.036 362.132 303.153C363.384 302.665 364.408 302.485 365.066 302.279C365.734 302.1 366.081 302.026 366.081 302.026C366.081 302.026 365.744 302.149 365.084 302.351C364.434 302.581 363.421 302.783 362.182 303.291C359.675 304.214 356.096 305.962 352.155 309.092C348.256 312.245 344.032 316.827 340.521 322.954C339.641 324.476 338.9 326.153 338.019 327.823C337.159 329.501 336.255 331.222 335.29 332.971C334.81 333.847 334.31 334.727 333.793 335.614C333.295 336.496 332.708 337.414 331.94 338.173C330.427 339.725 328.051 340.533 325.784 339.957L325.689 339.932L325.637 339.835C319.913 328.8 313.435 316.315 306.427 302.805L306.526 302.915C301.308 299.592 295.923 296.164 290.407 292.653C287.65 290.897 284.859 289.118 282.04 287.323C280.631 286.425 279.214 285.522 277.791 284.615L275.652 283.252L274.579 282.568C274.215 282.343 273.867 282.083 273.527 281.972C272.694 281.656 271.681 281.94 271.112 282.617C270.824 282.952 270.635 283.363 270.585 283.811L270.408 285.294C270.184 287.269 270.035 289.243 269.977 291.204C269.924 293.163 269.949 295.117 270.167 297.03C270.41 298.924 270.721 300.858 271.604 302.491C272.436 304.14 273.862 305.436 275.422 306.415C276.985 307.405 278.667 308.196 280.395 308.804C283.851 310.023 287.413 310.779 290.899 311.172L291.078 311.192L291.14 311.356C293.499 317.548 295.836 323.509 298.318 329.096C298.93 330.481 299.642 331.851 300.09 333.301C300.579 334.73 300.936 336.174 301.259 337.603C301.882 340.467 302.306 343.289 302.64 346.038C302.97 348.789 303.208 351.467 303.334 354.073C303.383 356.681 303.458 359.182 303.55 361.606C303.642 364.025 303.74 366.355 303.869 368.583C303.906 369.14 303.943 369.69 303.979 370.234C304.027 370.774 304.046 371.328 304.201 371.782C304.274 372.013 304.406 372.199 304.573 372.225C304.744 372.264 304.969 372.166 305.167 372.039C305.566 371.766 305.919 371.384 306.217 371.001L306.487 370.653L306.539 371.086C306.794 373.198 307.845 375.014 308.922 376.572C310.009 378.146 311.223 379.489 312.405 380.683C314.776 383.069 317.009 384.896 318.828 386.367C320.649 387.812 322.059 388.929 323.03 389.701C323.978 390.468 324.407 390.939 324.407 390.939Z" fill="#263238"/>
<g opacity="0.3">
<path d="M358.309 367.466C365.436 360.247 368.794 356.429 372.296 351.734C377.365 354.764 382.47 355.133 388.335 355.824C383.916 357.569 379.134 358.389 374.385 358.217C375.241 360.051 376.648 361.623 378.376 362.676C374.56 363.104 370.67 362.856 366.939 361.948C359.478 372.287 348.547 378.391 336.104 381.171C336.104 381.171 350.379 375.498 358.309 367.466Z" fill="black"/>
</g>
<path d="M372.296 351.734C372.312 351.747 372.214 351.905 372.008 352.195C371.757 352.538 371.454 352.951 371.091 353.446C370.292 354.532 369.101 356.076 367.563 357.932C364.479 361.623 360.102 366.703 354.379 371.375C351.526 373.714 348.615 375.707 345.828 377.28C343.034 378.843 340.372 379.961 338.109 380.804C335.83 381.611 333.948 382.138 332.638 382.455C332.038 382.59 331.538 382.701 331.123 382.794C330.775 382.865 330.591 382.893 330.586 382.872C330.581 382.852 330.757 382.785 331.094 382.676C331.501 382.553 331.99 382.406 332.577 382.228C333.863 381.842 335.718 381.255 337.959 380.403C340.186 379.517 342.804 378.369 345.555 376.796C348.297 375.212 351.169 373.226 353.997 370.908C359.671 366.277 364.079 361.268 367.237 357.657C368.814 355.842 370.052 354.341 370.906 353.301C371.304 352.834 371.636 352.445 371.912 352.121C372.149 351.855 372.28 351.721 372.296 351.734Z" fill="#263238"/>
<path d="M558.162 489.649C556.091 483.741 553.079 477.878 548.028 474.179C535.241 464.814 511.3 467.531 495.84 465.168L494.516 483.087C497.371 487.06 505.978 490.046 499.943 499.508C497.312 503.633 492.485 505.807 488.887 509.121C484.637 513.034 481.453 518.092 479.762 523.615C478.901 526.426 478.506 529.741 480.285 532.079C481.94 534.256 486.047 534.232 487.054 531.896C484.682 539.695 478.268 546.158 470.465 548.533C478.494 554.124 488.578 556.692 498.305 555.623C508.031 554.553 517.316 549.855 523.938 542.652C522.826 544.419 521.715 546.188 520.602 547.956C532.025 545.318 544.139 542.299 552.219 533.805C557.607 528.142 560.628 520.468 561.387 512.689C562.146 504.91 560.747 497.025 558.162 489.649Z" fill="#AE7461"/>
<g opacity="0.3">
<path d="M523.153 506.91C520.785 512.025 517.373 516.654 513.184 520.426C515.564 521.93 518.685 521.825 521.321 520.835C523.957 519.846 526.215 518.079 528.429 516.339C527.861 518.782 526.828 521.116 525.401 523.179C532.583 521.531 539.054 516.984 543.04 510.788L539.198 499.519L523.153 506.91Z" fill="black"/>
</g>
<path d="M521.976 496.466C521.904 504.431 519.431 512.358 514.961 518.95C523.203 519.481 531.478 514.066 534.29 506.299C534.102 510.138 533.913 513.975 533.725 517.814C541.595 514.881 547.064 506.485 546.566 498.103C546.069 489.72 539.644 482.03 531.483 480.05" fill="#AE7461"/>
<path d="M531.482 480.051C531.482 480.051 532.871 480.231 535.171 481.275C537.437 482.314 540.63 484.391 543.256 488.147C544.553 490.015 545.68 492.296 546.337 494.919C546.936 497.541 547.079 500.518 546.348 503.492C545.674 506.468 544.26 509.452 542.136 512.036C540.047 514.646 537.173 516.806 533.83 518.097L533.402 518.263L533.425 517.801C533.501 516.227 533.584 514.552 533.666 512.859C533.776 510.631 533.885 508.434 533.991 506.287L534.572 506.404C532.963 510.776 529.76 514.21 526.181 516.358C522.587 518.529 518.567 519.437 514.945 519.201L514.511 519.173L514.756 518.814C518.804 512.849 520.502 506.995 521.241 502.938C521.614 500.895 521.761 499.271 521.847 498.166C521.879 497.646 521.906 497.229 521.927 496.902C521.948 496.617 521.964 496.468 521.977 496.47C521.99 496.47 521.999 496.617 522.002 496.905C522.003 497.191 522.015 497.618 521.995 498.174C521.957 499.286 521.854 500.923 521.521 502.987C520.861 507.087 519.221 513.023 515.166 519.093L514.976 518.706C518.497 518.908 522.399 518.003 525.888 515.875C529.364 513.771 532.461 510.424 534.008 506.201L534.686 504.351L534.589 506.317C534.485 508.464 534.377 510.661 534.269 512.889C534.186 514.582 534.103 516.257 534.026 517.831L533.621 517.534C536.853 516.287 539.649 514.201 541.689 511.669C543.763 509.164 545.152 506.262 545.824 503.372C546.551 500.481 546.431 497.593 545.869 495.031C545.25 492.47 544.171 490.228 542.921 488.379C540.389 484.664 537.286 482.566 535.075 481.477C532.833 480.382 531.457 480.128 531.482 480.051Z" fill="#263238"/>
<g opacity="0.3">
<path d="M498.454 487.746C501.15 484.722 502.836 480.813 503.185 476.776C503.534 472.741 502.543 468.599 500.407 465.158C501.337 472.589 500.637 480.22 498.372 487.359" fill="black"/>
</g>
<path d="M450.157 414.314C441.107 406.853 431.772 399.41 420.868 395.09C409.964 390.771 397.093 389.947 386.82 395.606C378.938 399.947 373.275 407.789 370.695 416.41C368.115 425.031 368.455 434.36 370.693 443.076C371.02 441.39 371.346 439.704 371.673 438.017C378.611 453.224 382.874 469.646 384.207 486.307C384.207 486.307 350.364 485.127 342.948 486.307C335.532 487.487 326.633 494.038 324.408 505.039C324.408 505.039 352.583 505.039 370.859 505.039C389.063 505.039 457.949 508.32 469.047 504.393C480.146 500.465 482 486.744 482.371 480.071" fill="#AE7461"/>
<path d="M482.37 480.071C482.37 480.071 482.364 481.247 482.126 483.485C481.863 485.711 481.424 489.046 479.905 493.091C479.117 495.092 478.035 497.271 476.367 499.323C474.713 501.368 472.405 503.248 469.502 504.362C468.055 504.94 466.457 505.199 464.831 505.431C463.196 505.651 461.504 505.808 459.758 505.938C456.266 506.187 452.562 506.331 448.665 506.417C433.074 506.744 414.39 506.326 393.42 505.78C388.178 505.654 382.792 505.524 377.275 505.39C371.761 505.267 366.112 505.335 360.342 505.322C348.804 505.326 336.792 505.331 324.406 505.336H324.042L324.114 504.98C325.307 499.024 328.829 493.391 334.013 489.77C336.589 487.965 339.544 486.605 342.714 486.046C345.89 485.596 349.068 485.584 352.268 485.512C363.141 485.405 373.81 485.682 384.216 486.009L383.908 486.331C382.509 468.836 377.927 452.421 371.418 438.133L371.945 438.071C371.611 439.793 371.285 441.467 370.962 443.128L370.729 444.327L370.425 443.145C368.134 434.229 367.951 425.051 370.296 416.888C372.612 408.734 377.479 401.76 383.669 397.329C386.766 395.121 390.173 393.565 393.612 392.659C397.049 391.736 400.493 391.362 403.791 391.412C410.401 391.522 416.378 393.085 421.451 395.154C426.539 397.231 430.773 399.772 434.345 402.114C437.903 404.489 440.803 406.702 443.13 408.531C445.454 410.365 447.203 411.819 448.384 412.8C448.963 413.289 449.405 413.661 449.715 413.922C450.012 414.176 450.155 414.314 450.155 414.314C450.155 414.314 449.992 414.199 449.686 413.957C449.369 413.704 448.918 413.342 448.327 412.869C447.128 411.91 445.361 410.48 443.023 408.669C440.68 406.864 437.768 404.676 434.204 402.329C430.627 400.015 426.396 397.504 421.327 395.46C416.278 393.425 410.336 391.898 403.788 391.81C397.299 391.75 390.049 393.274 383.938 397.7C377.851 402.079 373.058 408.973 370.788 417.026C368.486 425.089 368.678 434.172 370.96 443.007L370.424 443.023C370.744 441.361 371.068 439.687 371.401 437.964L371.565 437.11L371.927 437.901C378.479 452.237 383.093 468.716 384.505 486.283L384.532 486.616L384.197 486.605C373.801 486.283 363.129 486.008 352.278 486.116C349.096 486.186 345.896 486.204 342.817 486.641C339.757 487.179 336.874 488.501 334.362 490.261C329.303 493.794 325.868 499.282 324.7 505.097L324.409 504.741C336.796 504.745 348.807 504.75 360.346 504.755C366.113 504.773 371.766 504.714 377.289 504.844C382.807 504.985 388.194 505.123 393.437 505.258C414.405 505.839 433.084 506.302 448.66 506.027C452.553 505.954 456.252 505.824 459.736 505.589C461.477 505.467 463.165 505.318 464.79 505.106C466.41 504.882 467.985 504.633 469.396 504.077C472.25 502.996 474.526 501.165 476.17 499.159C477.826 497.145 478.914 494.994 479.711 493.014C481.25 489.01 481.724 485.689 482.021 483.472C482.162 482.358 482.24 481.507 482.286 480.934C482.331 480.362 482.37 480.071 482.37 480.071Z" fill="#263238"/>
<path d="M419.528 468.571C419.509 468.58 419.406 468.404 419.226 468.059C419.051 467.712 418.777 467.208 418.475 466.535C417.845 465.198 417.011 463.222 416.153 460.709C414.425 455.704 412.773 448.428 412.763 440.223L413.325 440.374C413.148 440.677 412.957 441.004 412.764 441.333C410.558 445.077 408.459 448.638 406.563 451.855L406.181 452.503L406.052 451.764C405.121 446.431 405.379 441.797 405.852 438.616C406.086 437.021 406.362 435.775 406.578 434.931C406.799 434.087 406.945 433.642 406.972 433.649C407.005 433.657 406.916 434.117 406.751 434.969C406.59 435.821 406.368 437.07 406.182 438.659C405.809 441.827 405.631 446.41 406.596 451.665L406.086 451.574C407.969 448.349 410.052 444.78 412.243 441.025C412.436 440.697 412.627 440.371 412.805 440.067L413.366 439.11L413.367 440.22C413.372 448.348 414.939 455.568 416.552 460.577C417.353 463.09 418.123 465.08 418.686 466.441C419.247 467.803 419.57 468.551 419.528 468.571Z" fill="#263238"/>
<path d="M351.856 493.175C351.87 493.276 350.822 493.407 349.254 493.983C347.691 494.546 345.612 495.648 343.847 497.471C342.083 499.295 341.05 501.411 340.538 502.991C340.015 504.579 339.917 505.63 339.816 505.619C339.752 505.619 339.696 504.541 340.128 502.869C340.548 501.211 341.563 498.961 343.412 497.051C345.26 495.14 347.475 494.052 349.118 493.577C350.775 493.091 351.854 493.111 351.856 493.175Z" fill="#263238"/>
<path d="M397.963 499.102C397.938 499.131 397.599 498.884 397.027 498.39C396.461 497.888 395.67 497.127 394.785 496.099C393.016 494.056 390.898 490.869 389.588 486.917C389.426 486.466 389.306 486.007 389.168 485.561L389.753 485.54C389.321 487.625 388.753 489.54 388.159 491.179L387.954 491.745L387.678 491.218C386.592 489.144 386.229 487.194 386.136 485.851C386.047 484.497 386.183 483.728 386.227 483.733C386.295 483.735 386.267 484.505 386.445 485.819C386.624 487.125 387.053 488.996 388.142 490.967L387.662 491.005C388.21 489.373 388.745 487.477 389.164 485.42L389.396 484.276L389.747 485.399C389.883 485.834 390.001 486.283 390.16 486.725C391.441 490.592 393.453 493.744 395.113 495.826C396.779 497.92 398.035 499.025 397.963 499.102Z" fill="#263238"/>
<path d="M456.972 458.87C456.958 458.887 456.785 458.772 456.428 458.504L456.533 458.447C456.77 459.939 457.436 464.859 455.496 471.124L455.155 472.226L454.982 471.081C454.444 467.522 453.582 463.392 452.289 459.106C451.968 458.044 451.633 457.003 451.299 456.022L451.88 455.894C452.516 462.285 451.375 467.965 450.039 471.772C449.378 473.689 448.704 475.172 448.19 476.166C447.943 476.669 447.716 477.039 447.572 477.294C447.424 477.547 447.338 477.674 447.32 477.665C447.282 477.644 447.542 477.09 447.993 476.073C448.443 475.056 449.055 473.56 449.659 471.648C450.88 467.847 451.928 462.241 451.284 455.956L451.018 453.368L451.865 455.827C452.205 456.814 452.545 457.862 452.868 458.932C454.17 463.25 455.012 467.416 455.506 471.005L454.991 470.96C456.976 464.837 456.472 459.97 456.404 458.461L456.397 458.301L456.511 458.404C456.84 458.705 456.985 458.852 456.972 458.87Z" fill="#263238"/>
<path d="M437.115 385.959C437.095 385.989 436.573 385.709 435.669 385.132C434.765 384.555 433.491 383.656 432.006 382.425C429.034 379.984 425.271 376.061 422.277 370.895L422.834 370.68C422.89 370.936 422.949 371.211 423.009 371.488C423.649 374.489 424.258 377.347 424.815 379.957L425.061 381.107L424.328 380.19C421.832 377.07 420.359 373.969 419.545 371.735C419.136 370.614 418.88 369.706 418.726 369.08C418.578 368.452 418.522 368.109 418.551 368.102C418.627 368.081 418.965 369.428 419.86 371.613C420.753 373.789 422.274 376.805 424.761 379.84L424.273 380.074C423.702 377.466 423.076 374.613 422.42 371.615C422.36 371.339 422.3 371.063 422.246 370.808L421.84 368.929L422.801 370.593C425.748 375.69 429.405 379.607 432.281 382.109C433.717 383.369 434.943 384.313 435.803 384.945C436.66 385.575 437.139 385.921 437.115 385.959Z" fill="#263238"/>
<g opacity="0.3">
<path d="M412.602 439.627C411.497 444.149 408.966 447.883 406.324 451.716C405.508 447.162 405.422 442.648 406.106 438.181C403.649 444.43 403.382 451.516 405.363 457.932C406.818 455.698 408.274 453.463 409.728 451.229C410.546 459.829 415.277 466.668 421.239 472.919C415.766 462.254 413.578 451.485 412.602 439.627Z" fill="black"/>
</g>
</svg>
